<svg width="600" height="350" viewBox="0 0 675 435" fill="none" xmlns="http://www.w3.org/2000/svg">
<path d="M658.122 434.548H17.2831C12.9086 434.543 8.71462 432.803 5.62134 429.71C2.52806 426.616 0.788086 422.422 0.783142 418.048V22.894C0.786707 19.6892 2.06138 16.6166 4.32751 14.3504C6.59365 12.0842 9.66617 10.8094 12.871 10.8057H662.325C665.585 10.8094 668.711 12.1062 671.016 14.4116C673.321 16.717 674.618 19.8427 674.622 23.103V418.048C674.617 422.422 672.877 426.616 669.784 429.71C666.69 432.803 662.496 434.543 658.122 434.548Z" fill="#F2F2F2"/>
<path d="M637.402 413.716H40.1571C31.4021 413.716 24.2795 407.046 24.2795 398.847V54.7424C24.2795 48.6623 29.5575 43.7155 36.0452 43.7155H641.319C647.914 43.7155 653.28 48.7438 653.28 54.924V398.847C653.28 407.046 646.157 413.716 637.402 413.716Z" fill="white"/>
<path d="M674.392 24.9502H0.551575V16.5498C0.557918 12.1607 2.30499 7.95333 5.40952 4.85072C8.51404 1.74811 12.7225 0.00363937 17.1116 0H657.832C662.221 0.00360236 666.429 1.74806 669.534 4.85068C672.639 7.95329 674.386 12.1607 674.392 16.5498V24.9502Z" fill="#3F3D56"/>
<path d="M30.6469 16.7834C33.0126 16.7834 34.9304 14.8657 34.9304 12.5C34.9304 10.1343 33.0126 8.21658 30.6469 8.21658C28.2813 8.21658 26.3635 10.1343 26.3635 12.5C26.3635 14.8657 28.2813 16.7834 30.6469 16.7834Z" fill="white"/>
<path d="M46.9058 16.7834C49.2714 16.7834 51.1892 14.8657 51.1892 12.5C51.1892 10.1343 49.2714 8.21658 46.9058 8.21658C44.5401 8.21658 42.6223 10.1343 42.6223 12.5C42.6223 14.8657 44.5401 16.7834 46.9058 16.7834Z" fill="white"/>
<path d="M63.1646 16.7834C65.5302 16.7834 67.448 14.8657 67.448 12.5C67.448 10.1343 65.5302 8.21658 63.1646 8.21658C60.7989 8.21658 58.8811 10.1343 58.8811 12.5C58.8811 14.8657 60.7989 16.7834 63.1646 16.7834Z" fill="white"/>
<path d="M324.611 118.954H207.802C206.061 118.954 204.391 118.263 203.159 117.031C201.928 115.8 201.236 114.13 201.236 112.388C201.236 110.647 201.928 108.977 203.159 107.745C204.391 106.514 206.061 105.822 207.802 105.822H324.611C326.352 105.822 328.022 106.514 329.253 107.745C330.485 108.977 331.177 110.647 331.177 112.388C331.177 114.13 330.485 115.8 329.253 117.031C328.022 118.263 326.352 118.954 324.611 118.954Z" fill="#CCCCCC"/>
<path d="M469.757 118.954H352.949C351.207 118.954 349.537 118.263 348.306 117.031C347.074 115.8 346.382 114.13 346.382 112.388C346.382 110.647 347.074 108.977 348.306 107.745C349.537 106.514 351.207 105.822 352.949 105.822H469.757C471.498 105.822 473.168 106.514 474.4 107.745C475.631 108.977 476.323 110.647 476.323 112.388C476.323 114.13 475.631 115.8 474.4 117.031C473.168 118.263 471.498 118.954 469.757 118.954Z" fill="#CCCCCC"/>
<path d="M469.757 143.837H266.552C264.811 143.837 263.14 143.145 261.909 141.913C260.678 140.682 259.986 139.012 259.986 137.271C259.986 135.529 260.678 133.859 261.909 132.628C263.14 131.396 264.811 130.704 266.552 130.704H469.757C471.498 130.704 473.168 131.396 474.4 132.628C475.631 133.859 476.323 135.529 476.323 137.271C476.323 139.012 475.631 140.682 474.4 141.913C473.168 143.145 471.498 143.837 469.757 143.837Z" fill="#CCCCCC"/>
<path d="M324.611 93.7267H207.802C206.062 93.7245 204.394 93.0318 203.165 91.8006C201.935 90.5695 201.244 88.9006 201.244 87.1605C201.244 85.4205 201.935 83.7516 203.165 82.5204C204.394 81.2893 206.062 80.5965 207.802 80.5944H324.611C325.473 80.5933 326.328 80.7624 327.126 81.0919C327.923 81.4214 328.648 81.9049 329.259 82.5147C329.869 83.1245 330.354 83.8487 330.684 84.6459C331.015 85.4431 331.185 86.2976 331.185 87.1605C331.185 88.0235 331.015 88.878 330.684 89.6751C330.354 90.4723 329.869 91.1965 329.259 91.8064C328.648 92.4162 327.923 92.8997 327.126 93.2292C326.328 93.5587 325.473 93.7277 324.611 93.7267Z" fill="#CCCCCC"/>
<path d="M388.889 94.0723H355.713C353.972 94.0723 352.302 93.3805 351.07 92.1491C349.839 90.9177 349.147 89.2476 349.147 87.5061C349.147 85.7647 349.839 84.0945 351.07 82.8631C352.302 81.6318 353.972 80.94 355.713 80.94H388.889C390.631 80.94 392.301 81.6318 393.532 82.8631C394.764 84.0945 395.456 85.7647 395.456 87.5061C395.456 89.2476 394.764 90.9177 393.532 92.1491C392.301 93.3805 390.631 94.0723 388.889 94.0723Z" fill="#CCCCCC"/>
<path d="M240.979 143.837H207.802C206.062 143.835 204.394 143.142 203.165 141.911C201.935 140.679 201.244 139.011 201.244 137.271C201.244 135.53 201.935 133.862 203.165 132.63C204.394 131.399 206.062 130.707 207.802 130.704H240.979C241.842 130.703 242.696 130.872 243.494 131.202C244.291 131.531 245.016 132.015 245.627 132.625C246.237 133.235 246.722 133.959 247.052 134.756C247.383 135.553 247.553 136.408 247.553 137.271C247.553 138.133 247.383 138.988 247.052 139.785C246.722 140.582 246.237 141.307 245.627 141.916C245.016 142.526 244.291 143.01 243.494 143.339C242.696 143.669 241.842 143.838 240.979 143.837Z" fill="#CCCCCC"/>
<path d="M324.611 351.954H207.802C206.061 351.954 204.391 351.263 203.159 350.031C201.928 348.8 201.236 347.13 201.236 345.388C201.236 343.647 201.928 341.977 203.159 340.745C204.391 339.514 206.061 338.822 207.802 338.822H324.611C325.473 338.822 326.327 338.992 327.123 339.322C327.92 339.652 328.644 340.136 329.253 340.745C329.863 341.355 330.347 342.079 330.677 342.876C331.007 343.672 331.177 344.526 331.177 345.388C331.177 346.251 331.007 347.104 330.677 347.901C330.347 348.698 329.863 349.422 329.253 350.031C328.644 350.641 327.92 351.125 327.123 351.455C326.327 351.785 325.473 351.954 324.611 351.954Z" fill="#CCCCCC"/>
<path d="M469.757 351.954H352.949C351.207 351.954 349.537 351.263 348.306 350.031C347.074 348.8 346.382 347.13 346.382 345.388C346.382 343.647 347.074 341.977 348.306 340.745C349.537 339.514 351.207 338.822 352.949 338.822H469.757C470.619 338.822 471.473 338.992 472.269 339.322C473.066 339.652 473.79 340.136 474.4 340.745C475.009 341.355 475.493 342.079 475.823 342.876C476.153 343.672 476.323 344.526 476.323 345.388C476.323 346.251 476.153 347.104 475.823 347.901C475.493 348.698 475.009 349.422 474.4 350.031C473.79 350.641 473.066 351.125 472.269 351.455C471.473 351.785 470.619 351.954 469.757 351.954Z" fill="#CCCCCC"/>
<path d="M469.757 376.837H266.552C264.811 376.837 263.14 376.145 261.909 374.914C260.678 373.682 259.986 372.012 259.986 370.271C259.986 368.529 260.678 366.859 261.909 365.628C263.14 364.396 264.811 363.704 266.552 363.704H469.757C470.62 363.703 471.474 363.872 472.272 364.202C473.07 364.531 473.794 365.015 474.405 365.625C475.015 366.235 475.5 366.959 475.83 367.756C476.161 368.553 476.331 369.408 476.331 370.271C476.331 371.133 476.161 371.988 475.83 372.785C475.5 373.582 475.015 374.307 474.405 374.916C473.794 375.526 473.07 376.01 472.272 376.339C471.474 376.669 470.62 376.838 469.757 376.837Z" fill="#CCCCCC"/>
<path d="M324.611 326.727H207.802C206.061 326.727 204.391 326.035 203.159 324.803C201.928 323.572 201.236 321.902 201.236 320.161C201.236 318.419 201.928 316.749 203.159 315.518C204.391 314.286 206.061 313.594 207.802 313.594H324.611C326.352 313.594 328.022 314.286 329.253 315.518C330.485 316.749 331.177 318.419 331.177 320.161C331.177 321.902 330.485 323.572 329.253 324.803C328.022 326.035 326.352 326.727 324.611 326.727Z" fill="#CCCCCC"/>
<path d="M388.889 327.072H355.713C353.972 327.072 352.302 326.38 351.07 325.149C349.839 323.918 349.147 322.248 349.147 320.506C349.147 318.765 349.839 317.095 351.07 315.863C352.302 314.632 353.972 313.94 355.713 313.94H388.889C390.631 313.94 392.301 314.632 393.532 315.863C394.764 317.095 395.456 318.765 395.456 320.506C395.456 322.248 394.764 323.918 393.532 325.149C392.301 326.38 390.631 327.072 388.889 327.072Z" fill="#CCCCCC"/>
<path d="M240.979 376.837H207.802C206.061 376.837 204.391 376.145 203.159 374.914C201.928 373.682 201.236 372.012 201.236 370.271C201.236 368.529 201.928 366.859 203.159 365.628C204.391 364.396 206.061 363.704 207.802 363.704H240.979C241.842 363.703 242.696 363.872 243.494 364.202C244.291 364.531 245.016 365.015 245.627 365.625C246.237 366.235 246.722 366.959 247.052 367.756C247.383 368.553 247.553 369.408 247.553 370.271C247.553 371.133 247.383 371.988 247.052 372.785C246.722 373.582 246.237 374.307 245.627 374.916C245.016 375.526 244.291 376.01 243.494 376.339C242.696 376.669 241.842 376.838 240.979 376.837Z" fill="#CCCCCC"/>
<path d="M294.104 281.462C291.625 281.467 289.244 280.493 287.48 278.752L243.572 235.392C242.71 234.541 242.025 233.527 241.558 232.409C241.091 231.292 240.85 230.092 240.85 228.881C240.85 227.669 241.091 226.47 241.558 225.352C242.025 224.234 242.71 223.22 243.572 222.369L287.303 179.185C289.125 177.394 291.579 176.395 294.133 176.403C296.688 176.411 299.136 177.426 300.946 179.228C302.759 181.044 303.776 183.505 303.777 186.071C303.777 188.637 302.759 191.098 300.947 192.914L268.451 225.411C267.438 226.426 266.87 227.801 266.87 229.234C266.87 230.668 267.438 232.043 268.451 233.057L300.77 265.378C302.09 266.695 302.989 268.374 303.354 270.203C303.718 272.032 303.532 273.927 302.818 275.65C302.104 277.372 300.894 278.844 299.343 279.879C297.792 280.914 295.969 281.464 294.104 281.462V281.462Z" fill="#6C63FF"/>
<path d="M364.069 281.462C362.205 281.464 360.381 280.913 358.83 279.879C357.279 278.844 356.069 277.372 355.356 275.65C354.642 273.927 354.455 272.031 354.82 270.203C355.184 268.374 356.083 266.695 357.403 265.378L389.723 233.057C390.735 232.043 391.304 230.668 391.304 229.234C391.304 227.801 390.735 226.426 389.723 225.411L357.227 192.914C356.328 192.016 355.615 190.949 355.129 189.774C354.642 188.6 354.392 187.342 354.392 186.071C354.392 184.8 354.642 183.541 355.129 182.367C355.615 181.193 356.328 180.126 357.227 179.228C359.037 177.426 361.485 176.411 364.04 176.403C366.594 176.395 369.048 177.394 370.87 179.185L414.602 222.369C415.464 223.22 416.148 224.234 416.615 225.352C417.082 226.47 417.323 227.669 417.323 228.881C417.323 230.092 417.082 231.292 416.615 232.409C416.148 233.527 415.464 234.541 414.602 235.392L370.693 278.752C368.929 280.493 366.548 281.467 364.069 281.462Z" fill="#6C63FF"/>
</svg>
