<?xml version="1.0" encoding="utf-8"?>
<!-- Generator: Adobe Illustrator 24.0.0, SVG Export Plug-In . SVG Version: 6.00 Build 0)  -->
<svg version="1.1" xmlns="http://www.w3.org/2000/svg" xmlns:xlink="http://www.w3.org/1999/xlink" x="0px" y="0px"
	 viewBox="0 0 2500 2500" style="enable-background:new 0 0 2500 2500;" xml:space="preserve">
<style type="text/css">
	.st0{fill:#151515;}
	.st1{fill:#EFEFF4;}
	.st2{fill:#D7D9E0;}
	.st3{fill:#FFFFFF;}
	.st4{fill:#C6C9D3;}
	.st5{opacity:0.3;}
	.st6{fill:#333435;}
	.st7{fill:#F3D33F;}
	.st8{opacity:0.15;fill:#FFFFFF;}
	.st9{fill:#F7E57E;}
	.st10{fill:#48494B;}
	.st11{opacity:0.6;fill:#FFFFFF;}
	.st12{clip-path:url(#SVGID_2_);fill:#74767B;}
	.st13{fill:url(#SVGID_3_);}
	.st14{fill:url(#SVGID_4_);}
	.st15{fill:#74767B;}
	.st16{fill:#979AA0;}
	.st17{fill:url(#SVGID_5_);}
	.st18{fill:url(#SVGID_6_);}
	.st19{fill:#E8E8EF;}
</style>
<g id="Background">
	<rect class="st0" width="2500" height="2500"/>
</g>
<g id="Illustration">
	<g>
		<path class="st1" d="M2073.36,1560.05c-182.44,426.44-664.03,609.6-1041.36,578.37c-103.03-8.53-310.32-25.68-472.17-178.74
			c-310.83-293.94-262.96-908.37,34.59-1270.11c38.32-46.58,303.56-358.7,716.88-354.52c302.61,3.06,515.02,174,540.84,195.3
			c32.63,26.9,104.59,90.83,169.44,192.25C2173.97,960.89,2187.37,1293.56,2073.36,1560.05z"/>
		<g>
			<path class="st2" d="M512.49,358.23c-2.43-11.23,11.16-18.89,19.64-11.13C618.21,425.9,825.64,662.54,780,1081.26
				c-57.26,525.34,54.43,715.36,191.91,830.38c0,0-187.48-52.54-307.46-245.26C369.88,1193.2,555.65,557.97,512.49,358.23z"/>
			<path class="st3" d="M579.3,521.24c11.38,58.26,21.61,116.71,29.69,175.45c8.38,58.69,14.98,117.61,19.74,176.65
				c4.53,59.05,7.95,118.18,8.85,177.36c1.17,59.18-0.21,118.34-1.8,177.73c-1.26,59.37-2.86,119.17,1.66,179.32
				c4.45,60.03,16.14,120.48,38.52,177.01c5.6,14.09,11.47,28.13,18.11,41.69c6.39,13.68,13.4,27.09,20.64,40.36
				c14.61,26.48,31.01,52.04,49.23,76.26c36.57,48.36,80.47,91.12,128.69,127.17c5.08,3.79,12.27,2.75,16.06-2.32
				c3.73-4.98,2.79-12.01-2.05-15.85l-0.03-0.03c-11.48-9.1-22.84-18.32-33.76-28.01c-5.54-4.76-10.85-9.76-16.25-14.65
				c-5.21-5.09-10.62-9.99-15.67-15.23c-20.55-20.65-39.62-42.71-56.96-66.08c-34.88-46.51-62.99-98.47-84.47-152.44
				c-10.44-27.11-18.86-54.95-25.11-83.34c-6.23-28.39-10.29-57.31-12.7-86.48c-4.83-58.37-3.73-117.58-2.9-176.95
				c0.75-59.39,1.1-119.07-1.01-178.68c-0.97-29.8-2.48-59.58-4.52-89.32c-0.94-14.87-2.16-29.73-3.35-44.58
				c-1.34-14.84-2.76-29.68-4.3-44.49c-6.27-59.26-14.35-118.31-24.29-177.02c-10.21-58.66-21.98-117.03-35.98-174.84
				c-0.4-1.65-2.06-2.67-3.72-2.27C580,518.05,578.99,519.63,579.3,521.24z"/>
		</g>
		<g>
			<g>
				<path class="st4" d="M718.76,1954.51c-6.78,20.06-31.85,26.68-47.83,12.79c-88.19-76.66-317.92-315.96-304.55-719.12
					c11.3-340.45-14.93-526.13-32.68-609.6c-3.75-17.65,17.21-29.83,30.71-17.86C513.37,752.8,964.45,1227.54,718.76,1954.51z"/>
				<path class="st3" d="M690.09,1955.3c-0.43,0.3-0.9,0.56-1.4,0.78c-4.18,1.84-9.06-0.06-10.9-4.24
					c-2.08-4.74-208.55-479.23-214.23-953.31c-0.05-4.56,3.6-8.31,8.17-8.37c4.57-0.05,8.31,3.6,8.37,8.17
					c5.63,470.63,210.75,942.14,212.82,946.85C694.55,1948.86,693.28,1953.08,690.09,1955.3z"/>
			</g>
		</g>
		<g>
			<g>
				<g class="st5">
					<path class="st4" d="M1686.48,976.21c2.9,3.77,2.54,9.21-0.99,12.55c-7.71,7.32-15.86,14.42-24.21,21.09
						c-4.06,3.25-9.99,2.59-13.23-1.48c-0.04-0.05-0.07-0.1-0.11-0.15c-3.12-4.06-2.42-9.88,1.59-13.09
						c7.93-6.34,15.67-13.08,22.99-20.03c3.77-3.58,9.73-3.43,13.31,0.34C1686.07,975.7,1686.28,975.95,1686.48,976.21z
						 M1621.08,1025.69c0.22,0.29,0.43,0.6,0.63,0.93c2.66,4.47,1.2,10.25-3.27,12.91c-9.17,5.47-18.67,10.59-28.23,15.24
						c-4.68,2.27-10.29,0.34-12.58-4.35c-2.27-4.68-0.32-10.31,4.35-12.58c9.09-4.42,18.11-9.29,26.83-14.48
						C1612.94,1020.88,1618.21,1021.96,1621.08,1025.69z M1546.41,1059.55c0.64,0.83,1.15,1.78,1.49,2.84
						c1.6,4.95-1.11,10.25-6.06,11.86c-10.14,3.28-20.55,6.16-30.94,8.56c-5.07,1.17-10.12-2-11.29-7.05
						c-1.17-5.06,1.99-10.12,7.05-11.29c9.87-2.28,19.75-5.01,29.38-8.13C1539.93,1055.07,1544.05,1056.48,1546.41,1059.55z
						 M1466.03,1075.85c1.06,1.37,1.74,3.05,1.91,4.91c0.45,5.18-3.38,9.75-8.56,10.2c-10.62,0.93-21.42,1.41-32.08,1.43
						c-5.19,0.01-9.42-4.2-9.43-9.4c-0.01-5.2,4.2-9.42,9.4-9.43c10.12-0.02,20.37-0.47,30.47-1.36
						C1461.06,1071.91,1464.13,1073.39,1466.03,1075.85z M1384.03,1073.83c1.48,1.93,2.22,4.42,1.86,7.02
						c-0.71,5.15-5.46,8.75-10.61,8.05c-10.54-1.45-21.17-3.36-31.58-5.7c-5.07-1.14-8.27-6.17-7.12-11.25
						c1.14-5.07,6.17-8.26,11.25-7.12c9.9,2.23,20,4.05,30.02,5.42C1380.4,1070.59,1382.57,1071.93,1384.03,1073.83z
						 M1304.53,1053.72c1.92,2.49,2.54,5.89,1.35,9.05c-1.83,4.87-7.26,7.33-12.12,5.5c-9.97-3.75-19.91-7.97-29.54-12.55
						c-4.7-2.24-6.69-7.85-4.45-12.55c2.23-4.69,7.85-6.69,12.55-4.45c9.15,4.35,18.59,8.37,28.06,11.93
						C1302.08,1051.29,1303.49,1052.37,1304.53,1053.72z M1076.59,793.83c0.79,1.03,1.38,2.25,1.7,3.6
						c2.29,9.85,5.04,19.73,8.18,29.37c1.61,4.94-1.09,10.26-6.03,11.86c-4.94,1.61-10.26-1.09-11.87-6.03
						c-3.31-10.15-6.21-20.56-8.62-30.93c-1.18-5.06,1.97-10.13,7.04-11.3C1070.7,789.53,1074.41,790.99,1076.59,793.83z
						 M1231.51,1016.51c2.38,3.1,2.66,7.48,0.39,10.92c-2.87,4.34-8.71,5.53-13.04,2.67c-8.89-5.87-17.64-12.2-25.99-18.82
						c-4.06-3.24-4.77-9.15-1.54-13.22c3.23-4.08,9.15-4.76,13.23-1.54c7.93,6.28,16.24,12.29,24.68,17.87
						C1230.12,1014.98,1230.89,1015.7,1231.51,1016.51z M1104.06,871.1c0.38,0.49,0.72,1.03,1,1.61
						c4.44,9.09,9.34,18.12,14.54,26.82c2.67,4.46,1.22,10.24-3.24,12.91c-4.46,2.67-10.26,1.23-12.91-3.24
						c-5.48-9.16-10.63-18.65-15.3-28.22c-2.28-4.67-0.34-10.31,4.33-12.59C1096.56,866.38,1101.39,867.62,1104.06,871.1z
						 M1168.63,963.92c2.89,3.77,2.54,9.19-0.98,12.54c-3.76,3.59-9.72,3.44-13.31-0.32c-7.34-7.71-14.45-15.83-21.13-24.16
						c-0.04-0.05-0.08-0.1-0.13-0.16c-3.11-4.05-2.43-9.86,1.58-13.07c4.06-3.25,9.98-2.6,13.23,1.45
						c6.34,7.91,13.1,15.62,20.08,22.94C1168.2,963.4,1168.42,963.66,1168.63,963.92z"/>
					<path class="st4" d="M1067.49,728.35c1.13,1.47,1.84,3.29,1.93,5.28c0.23,4.85,0.57,9.77,0.99,14.64
						c0.46,5.18-3.37,9.75-8.55,10.2c-5.18,0.46-9.76-3.37-10.2-8.55c-0.45-5.12-0.81-10.29-1.05-15.4
						c-0.25-5.19,3.76-9.6,8.95-9.85C1062.78,724.53,1065.68,725.99,1067.49,728.35z"/>
				</g>
				<g class="st5">
					<path class="st4" d="M1166.91,459.12c2.77,3.6,2.59,8.78-0.63,12.19c-3.33,3.53-6.65,7.19-9.85,10.87
						c-3.41,3.92-9.36,4.34-13.28,0.93c-3.94-3.43-4.34-9.36-0.93-13.28c3.37-3.88,6.86-7.73,10.37-11.45
						c3.57-3.78,9.53-3.95,13.31-0.38C1166.27,458.35,1166.6,458.72,1166.91,459.12z"/>
					<path class="st4" d="M1724.17,486.98c2.64,3.43,5.23,6.93,7.77,10.48c3.03,4.23,2.05,10.11-2.17,13.14
						c-4.23,3.03-10.14,2.05-13.14-2.17c-5.87-8.19-12.05-16.13-18.46-23.67c-3.36-3.97-2.88-9.9,1.08-13.27
						c3.96-3.37,9.91-2.88,13.27,1.08C1716.49,477.23,1720.41,482.08,1724.17,486.98z M1758.05,539.75
						c0.32,0.42,0.61,0.87,0.87,1.35c4.91,9.29,9.47,18.89,13.57,28.53c2.03,4.78-0.2,10.31-4.98,12.34
						c-4.79,2.03-10.33-0.2-12.35-4.98c-3.89-9.16-8.23-18.28-12.89-27.1c-2.43-4.6-0.67-10.29,3.93-12.72
						C1750.31,535,1755.31,536.18,1758.05,539.75z M1677.91,437.12c2.7,3.52,2.61,8.57-0.45,12c-3.47,3.88-9.42,4.21-13.29,0.74
						c-7.41-6.63-15.21-13.03-23.18-19.03c-4.15-3.13-4.99-9.03-1.86-13.18c3.13-4.16,9.03-4.99,13.18-1.86
						c8.39,6.31,16.61,13.06,24.42,20.04C1677.16,436.23,1677.56,436.66,1677.91,437.12z M1787.65,614.85
						c0.73,0.95,1.28,2.05,1.62,3.27c2.74,10.13,5.08,20.5,6.96,30.82c0.93,5.11-2.46,10.01-7.58,10.94
						c-5.12,0.93-10.02-2.46-10.95-7.58c-1.78-9.8-4-19.64-6.61-29.26c-1.36-5.02,1.61-10.19,6.63-11.55
						C1781.52,610.47,1785.4,611.91,1787.65,614.85z M1612.2,390.35c2.22,2.89,2.65,6.93,0.76,10.32c-2.53,4.54-8.26,6.18-12.8,3.65
						c-8.69-4.83-17.7-9.36-26.8-13.46c-4.74-2.14-6.85-7.71-4.71-12.45c2.14-4.74,7.71-6.85,12.45-4.71
						c9.58,4.32,19.07,9.08,28.22,14.17C1610.47,388.51,1611.44,389.36,1612.2,390.35z M1537.82,359.12
						c1.77,2.31,2.45,5.4,1.57,8.41c-1.47,4.99-6.71,7.83-11.7,6.36c-9.56-2.82-19.36-5.28-29.1-7.3
						c-5.09-1.05-8.37-6.03-7.31-11.12c1.05-5.09,6.03-8.36,11.13-7.31c10.26,2.12,20.57,4.71,30.63,7.68
						C1535.01,356.42,1536.65,357.6,1537.82,359.12z M1458.4,344.86c1.35,1.76,2.09,3.99,1.92,6.37c-0.35,5.19-4.84,9.11-10.03,8.75
						c-9.96-0.68-20.05-0.94-30-0.79c-5.2,0.08-9.48-4.06-9.56-9.27c-0.08-5.2,4.07-9.48,9.27-9.56c10.47-0.16,21.1,0.12,31.57,0.83
						C1454.38,341.39,1456.81,342.79,1458.4,344.86z M1377.77,348.26c0.93,1.22,1.58,2.68,1.83,4.3c0.79,5.14-2.73,9.94-7.87,10.73
						c-9.86,1.51-19.76,3.47-29.44,5.81c-5.05,1.22-10.14-1.89-11.36-6.94c-1.22-5.05,1.89-10.14,6.94-11.36
						c10.19-2.46,20.62-4.52,31-6.11C1372.38,344.14,1375.74,345.62,1377.77,348.26z M1299.82,369.28c0.53,0.68,0.96,1.45,1.29,2.3
						c1.9,4.84-0.48,10.3-5.31,12.2c-9.26,3.64-18.48,7.73-27.42,12.15c-4.66,2.3-10.31,0.38-12.61-4.27
						c-2.31-4.66-0.39-10.31,4.27-12.61c9.41-4.65,19.12-8.95,28.87-12.79C1292.9,364.69,1297.32,366.04,1299.82,369.28z
						 M1228.43,406.89c0.12,0.15,0.23,0.31,0.34,0.47c2.91,4.31,1.78,10.16-2.53,13.07c-6.08,4.11-12.11,8.45-17.91,12.92
						c-2.1,1.62-4.18,3.25-6.24,4.9c-4.05,3.26-9.98,2.61-13.23-1.44c-3.38-4.04-2.61-9.98,1.44-13.23
						c2.16-1.74,4.35-3.46,6.56-5.16c6.11-4.69,12.45-9.27,18.85-13.59C1219.85,402.03,1225.43,402.97,1228.43,406.89z"/>
					<path class="st4" d="M1800,694.85c1.14,1.48,1.85,3.32,1.94,5.33c0.22,5.09,0.33,10.28,0.34,15.43c0.01,5.2-4.2,9.42-9.4,9.43
						c-5.2,0-9.42-4.2-9.43-9.4c-0.01-4.89-0.11-9.82-0.32-14.66c-0.22-5.19,3.81-9.58,9-9.8
						C1795.31,691.04,1798.19,692.5,1800,694.85z"/>
				</g>
				<g>
					<path class="st2" d="M1705.67,751.3c0.43-1.83-0.35-3.73-1.93-4.73l-45.28-28.59c0.03-25.01-3.93-50.2-12.12-74.6l33.84-41.46
						c1.19-1.45,1.32-3.5,0.33-5.1l-33.8-54.62c-0.99-1.6-2.88-2.39-4.71-1.98l-52.2,11.79c-18.18-18.22-38.96-33-61.35-44.13
						l-5.39-53.28c-0.19-1.87-1.54-3.41-3.37-3.84l-62.52-14.72c-1.83-0.43-3.73,0.35-4.73,1.93l-28.59,45.28
						c-25.01-0.03-50.2,3.93-74.6,12.12l-41.46-33.84c-1.45-1.19-3.5-1.32-5.1-0.33l-54.62,33.8c-1.6,0.99-2.39,2.88-1.98,4.71
						l11.79,52.2c-18.22,18.18-33,38.96-44.13,61.35l-53.28,5.39c-1.87,0.19-3.41,1.54-3.84,3.37l-14.72,62.52
						c-0.43,1.83,0.35,3.73,1.93,4.73l45.28,28.59c-0.03,25.01,3.93,50.2,12.12,74.6l-33.84,41.46c-1.19,1.45-1.32,3.5-0.33,5.1
						l33.8,54.62c0.99,1.6,2.88,2.39,4.71,1.98l52.2-11.79c18.18,18.22,38.96,33,61.35,44.13l5.39,53.28
						c0.19,1.87,1.54,3.41,3.37,3.84l62.52,14.72c1.83,0.43,3.73-0.35,4.73-1.93l28.59-45.28c25.01,0.03,50.2-3.93,74.6-12.13
						l41.46,33.84c1.45,1.19,3.5,1.32,5.1,0.33l54.62-33.8c1.6-0.99,2.39-2.88,1.98-4.71l-11.79-52.2
						c18.22-18.18,33-38.96,44.13-61.35l53.28-5.39c1.87-0.19,3.41-1.54,3.84-3.37L1705.67,751.3z"/>
					<g>
						<path class="st1" d="M1475.02,678.62c19.18,24.96,17.69,60.95-4.85,84.22c-24.77,25.58-65.72,26.23-91.3,1.47
							c-12.39-12-19.37-28.1-19.64-45.34c-0.28-17.24,6.18-33.56,18.18-45.95c24.77-25.58,65.72-26.23,91.3-1.47
							C1471.01,673.78,1473.12,676.15,1475.02,678.62z M1384.46,748.01c1.48,1.93,3.11,3.76,4.89,5.48
							c19.61,18.99,51.01,18.48,70-1.12c18.99-19.61,18.5-51.01-1.12-70c-19.61-18.99-51.01-18.48-70,1.12
							c-9.2,9.5-14.15,22.01-13.94,35.23C1374.47,729.47,1378.03,739.64,1384.46,748.01z"/>
					</g>
					<path class="st1" d="M1548.16,620.76c3.29,4.29,6.39,8.76,9.27,13.42l0,0c0.91,1.47,1.79,2.95,2.65,4.44
						c4.24,7.37,7.89,15.07,10.89,22.98c0.04,0.11,0.08,0.22,0.12,0.32c0.11,0.31,0.23,0.61,0.34,0.92c0.22,0.6,0.44,1.2,0.65,1.79
						c0.56,1.58,0.01,3.28-1.25,4.25c-0.31,0.24-0.66,0.43-1.04,0.56c-1.96,0.7-4.11-0.33-4.81-2.29
						c-3.59-10.08-8.29-19.84-13.97-29.02c-28.19-45.57-76.83-70.93-126.82-71.6c-27.8-0.37-56.02,6.9-81.36,22.58
						c-4.44,2.75-8.72,5.7-12.81,8.85c-27.51,21.14-46.76,50.86-54.81,85.09c-9.26,39.32-2.65,79.89,18.61,114.24
						c43.91,70.93,137.27,92.89,208.17,49.01c4.37-2.71,8.59-5.62,12.64-8.74c17.55-13.49,31.95-30.67,42.11-50.35
						c0.26-0.51,0.62-0.93,1.05-1.26c1.12-0.86,2.68-1.05,4.02-0.36c1.85,0.96,2.58,3.22,1.62,5.07
						c-10.67,20.67-25.79,38.7-44.21,52.86c-4.25,3.27-8.68,6.33-13.27,9.17c-74.44,46.07-172.49,22.96-218.54-51.45
						c-22.32-36.06-29.25-78.65-19.53-119.93c8.46-35.94,28.66-67.13,57.54-89.33c4.29-3.3,8.78-6.4,13.44-9.29
						c36.06-22.32,78.65-29.25,119.93-19.54C1494.77,571.65,1525.97,591.87,1548.16,620.76z"/>
				</g>
			</g>
			<g>
				<g class="st5">
					<path class="st4" d="M2078.92,1079.81c1.53,1.99,1.64,4.83,0.08,6.97c-2.91,3.99-5.98,7.94-9.12,11.75
						c-2.04,2.48-5.71,2.83-8.19,0.78c-2.49-2.04-2.83-5.71-0.78-8.19c3-3.63,5.92-7.4,8.7-11.2c1.89-2.59,5.53-3.16,8.12-1.27
						C2078.2,1078.99,2078.59,1079.38,2078.92,1079.81z"/>
					<path class="st4" d="M2049.36,1113.37c1.8,2.34,1.57,5.7-0.62,7.76c-6.18,5.84-12.73,11.42-19.46,16.6
						c-1.42,1.09-2.85,2.17-4.3,3.23c-2.59,1.9-6.24,1.14-8.13-1.24c-1.9-2.59-1.35-6.23,1.24-8.13c1.39-1.02,2.76-2.05,4.11-3.09
						c6.43-4.94,12.67-10.26,18.57-15.83c2.34-2.21,6.01-2.1,8.22,0.23C2049.11,1113.07,2049.24,1113.22,2049.36,1113.37z
						 M2000.72,1149.13c0.17,0.22,0.33,0.45,0.46,0.7c1.57,2.8,0.58,6.35-2.22,7.92c-8.98,5.05-18.35,9.59-27.85,13.49
						c-2.97,1.22-6.37-0.22-7.59-3.17c-1.22-2.97,0.2-6.36,3.17-7.59c9.07-3.72,18.01-8.05,26.57-12.86
						C1995.82,1146.18,1998.99,1146.88,2000.72,1149.13z M1944.86,1172.03c0.45,0.58,0.79,1.27,1,2.02c0.84,3.1-0.99,6.29-4.09,7.13
						c-9.93,2.69-20.14,4.79-30.34,6.23c-3.18,0.45-6.12-1.76-6.57-4.94c-0.45-3.18,1.76-6.12,4.94-6.57
						c9.73-1.38,19.46-3.37,28.92-5.94C1941.07,1169.32,1943.47,1170.22,1944.86,1172.03z M1885.08,1180.49
						c0.73,0.95,1.17,2.14,1.2,3.44c0.05,3.21-2.51,5.86-5.72,5.91c-10.31,0.17-20.71-0.29-30.93-1.38c-3.19-0.34-5.5-3.21-5.16-6.4
						c0.34-3.19,3.2-5.5,6.4-5.16c9.74,1.04,19.67,1.49,29.49,1.32C1882.28,1178.18,1884,1179.08,1885.08,1180.49z M1825.05,1174.1
						c1.02,1.33,1.46,3.1,1.05,4.87c-0.73,3.13-3.85,5.07-6.98,4.34c-10.02-2.34-20-5.31-29.65-8.85c-3.02-1.1-4.57-4.44-3.46-7.46
						s4.45-4.57,7.46-3.46c9.21,3.37,18.72,6.21,28.29,8.44C1823.12,1172.3,1824.26,1173.07,1825.05,1174.1z M1768.39,1153.33
						c1.33,1.73,1.62,4.13,0.56,6.2c-1.47,2.85-4.97,3.98-7.83,2.52c-9.16-4.7-18.1-10.02-26.59-15.81
						c-2.65-1.82-3.33-5.43-1.53-8.08c1.81-2.65,5.43-3.34,8.08-1.53c8.09,5.52,16.62,10.59,25.35,15.07
						C1767.23,1152.11,1767.89,1152.67,1768.39,1153.33z M1718.55,1119.35c1.66,2.16,1.62,5.26-0.25,7.38
						c-2.12,2.41-5.8,2.64-8.21,0.52c-7.7-6.78-15.07-14.14-21.91-21.86c-2.09-2.44-1.9-6.08,0.5-8.21c2.4-2.13,6.08-1.91,8.21,0.5
						c6.52,7.37,13.55,14.39,20.89,20.85C1718.07,1118.78,1718.32,1119.06,1718.55,1119.35z M1662.96,1048.22
						c0.2,0.27,0.39,0.56,0.55,0.87c3.91,7.52,8.3,14.96,13.05,22.11c0.71,1.09,1.43,2.15,2.15,3.19c1.82,2.65,1.16,6.27-1.49,8.09
						c-2.65,1.83-6.35,1.2-8.09-1.49c-0.77-1.12-1.53-2.24-2.28-3.38c-4.96-7.47-9.56-15.27-13.66-23.16
						c-1.48-2.85-0.37-6.36,2.48-7.84C1658.21,1045.29,1661.28,1046.02,1662.96,1048.22z"/>
				</g>
				<g class="st5">
					<path class="st4" d="M2073.12,783.04c1.93,2.52,1.49,6.13-1.01,8.11c-2.52,1.99-6.18,1.56-8.16-0.96
						c-5.99-7.59-12.49-14.88-19.33-21.66c-2.24-2.27-2.3-5.94-0.03-8.22c2.26-2.28,5.94-2.29,8.22-0.03
						c7.17,7.12,13.99,14.76,20.26,22.71C2073.09,783,2073.11,783.02,2073.12,783.04z M2090.11,807.46
						c0.13,0.17,0.25,0.34,0.36,0.52c5.28,8.64,10.08,17.69,14.28,26.89c1.33,2.92,0.05,6.37-2.88,7.7
						c-2.93,1.34-6.37,0.03-7.71-2.87c-4.01-8.78-8.59-17.42-13.62-25.66c-1.67-2.74-0.81-6.32,1.93-7.99
						C2085.04,804.48,2088.33,805.14,2090.11,807.46z M2030.97,741.23c1.57,2.04,1.64,4.96-0.02,7.1c-1.96,2.54-5.61,3-8.15,1.04
						c-7.65-5.92-15.73-11.42-24-16.35c-2.76-1.66-3.66-5.21-2.01-7.97c1.64-2.76,5.21-3.66,7.97-2.02
						c8.68,5.17,17.14,10.94,25.16,17.14C2030.33,740.49,2030.68,740.85,2030.97,741.23z M2114.73,861.52
						c0.4,0.52,0.72,1.13,0.94,1.79c3.05,9.66,5.53,19.61,7.37,29.56c0.59,3.16-1.5,6.19-4.66,6.78c-3.15,0.58-6.18-1.51-6.77-4.66
						c-1.76-9.49-4.12-18.97-7.02-28.18c-0.96-3.06,0.74-6.33,3.8-7.29C2110.77,858.76,2113.29,859.64,2114.73,861.52z
						 M1979.97,710.85c1.25,1.63,1.6,3.88,0.71,5.89c-1.3,2.94-4.73,4.27-7.67,2.97c-8.82-3.9-17.98-7.3-27.22-10.1
						c-3.08-0.93-4.81-4.18-3.88-7.25c0.93-3.07,4.18-4.81,7.25-3.88c9.69,2.94,19.29,6.5,28.54,10.59
						C1978.64,709.49,1979.4,710.11,1979.97,710.85z M1923.17,693.6c0.96,1.25,1.41,2.88,1.12,4.55c-0.56,3.16-3.57,5.28-6.73,4.72
						c-9.53-1.67-19.24-2.78-28.86-3.3c-3.21-0.17-5.67-2.92-5.5-6.12c0.17-3.21,2.91-5.66,6.11-5.49
						c10.09,0.54,20.27,1.7,30.25,3.46C1921.06,691.68,1922.32,692.48,1923.17,693.6z M1863.87,690.44
						c0.67,0.88,1.11,1.96,1.19,3.15c0.22,3.2-2.2,5.98-5.41,6.2c-9.65,0.65-19.34,1.9-28.8,3.72c-3.15,0.6-6.2-1.46-6.8-4.61
						c-0.61-3.15,1.46-6.2,4.61-6.81c9.92-1.9,20.09-3.22,30.21-3.91C1860.88,688.04,1862.72,688.95,1863.87,690.44z"/>
					<path class="st4" d="M2125.58,920.19c0.68,0.89,1.12,1.98,1.19,3.19c0.3,4.97,0.45,9.97,0.46,14.86c0,3.21-2.6,5.82-5.81,5.82
						c-3.2-0.01-5.81-2.6-5.82-5.81c0-4.67-0.15-9.43-0.44-14.17c-0.19-3.21,2.25-5.96,5.45-6.15
						C2122.62,917.81,2124.44,918.71,2125.58,920.19z"/>
				</g>
				<g>
					<path class="st2" d="M2063.07,962.12c0.29-1.22-0.23-2.49-1.29-3.16l-30.3-19.13c0.02-16.73-2.63-33.59-8.11-49.92l22.64-27.74
						c0.79-0.97,0.88-2.34,0.22-3.41l-22.62-36.55c-0.66-1.07-1.93-1.6-3.15-1.32l-34.93,7.89c-12.16-12.19-26.07-22.08-41.05-29.53
						l-3.61-35.65c-0.13-1.25-1.03-2.28-2.25-2.57l-41.84-9.85c-1.22-0.29-2.49,0.23-3.16,1.29l-19.13,30.3
						c-16.73-0.02-33.59,2.63-49.92,8.11l-27.74-22.64c-0.97-0.79-2.34-0.88-3.41-0.22l-36.55,22.62c-1.07,0.66-1.6,1.93-1.32,3.15
						l7.89,34.93c-12.19,12.16-22.08,26.07-29.53,41.05l-35.65,3.61c-1.25,0.13-2.28,1.03-2.57,2.25l-9.85,41.84
						c-0.29,1.22,0.23,2.49,1.29,3.16l30.3,19.13c-0.02,16.73,2.63,33.59,8.11,49.92l-22.64,27.74c-0.79,0.97-0.88,2.34-0.22,3.41
						l22.62,36.55c0.66,1.07,1.93,1.6,3.15,1.32l34.93-7.89c12.16,12.19,26.07,22.08,41.05,29.53l3.61,35.65
						c0.13,1.25,1.03,2.28,2.25,2.57l41.84,9.85c1.22,0.29,2.49-0.23,3.16-1.29l19.13-30.3c16.73,0.02,33.59-2.63,49.92-8.11
						l27.74,22.64c0.97,0.79,2.34,0.88,3.41,0.22l36.55-22.62c1.07-0.66,1.6-1.93,1.32-3.15l-7.89-34.93
						c12.19-12.16,22.08-26.07,29.53-41.05l35.65-3.61c1.25-0.13,2.28-1.03,2.57-2.25L2063.07,962.12z"/>
					<g>
						<path class="st1" d="M1909.39,913.06c5.71,7.44,8.88,16.47,9.04,26.02c0.19,11.75-4.21,22.86-12.38,31.3
							c-16.86,17.42-44.76,17.87-62.19,1c-17.41-16.92-17.87-44.77-1-62.19c8.17-8.44,19.14-13.19,30.89-13.38
							c11.75-0.19,22.87,4.21,31.3,12.38C1906.62,909.73,1908.07,911.35,1909.39,913.06z M1848.78,959.49
							c0.95,1.24,2.01,2.42,3.16,3.55c12.82,12.41,33.34,12.08,45.75-0.74c6.01-6.21,9.25-14.38,9.11-23.02
							c-0.14-8.64-3.64-16.7-9.84-22.72l0,0c-6.21-6.01-14.39-9.25-23.02-9.11c-8.64,0.14-16.71,3.63-22.72,9.84
							C1839.92,928.94,1839.18,946.98,1848.78,959.49z"/>
					</g>
					<path class="st1" d="M1960.35,872.85c2.24,2.92,4.35,5.97,6.33,9.16c3.93,6.34,7.21,13.08,9.77,20.07
						c0.11,0.31,0.23,0.63,0.34,0.94c0.87,2.43,0.02,5.06-1.93,6.56c-0.47,0.36-1.01,0.66-1.6,0.87c-3.02,1.08-6.34-0.51-7.42-3.53
						c-2.33-6.54-5.37-12.86-9.04-18.78l0,0c-0.2-0.33-0.41-0.65-0.61-0.97c-8.81-13.94-20.77-25.16-34.8-32.98
						c-7.62-4.25-15.85-7.49-24.54-9.62c-0.07-0.02-0.14-0.03-0.21-0.05c-0.22-0.05-0.43-0.11-0.65-0.15
						c-25.45-5.99-51.72-1.71-73.95,12.05c-2.88,1.78-5.64,3.69-8.29,5.72c-17.81,13.69-30.27,32.93-35.49,55.09
						c-5.99,25.45-1.71,51.72,12.05,73.95c13.76,22.22,35.36,37.78,60.81,43.78c25.45,5.99,51.72,1.71,73.95-12.05
						c2.83-1.75,5.56-3.64,8.18-5.65c11.36-8.73,20.69-19.85,27.26-32.6c0.41-0.79,0.96-1.44,1.62-1.94
						c1.73-1.33,4.14-1.63,6.21-0.56c2.85,1.48,3.97,4.98,2.5,7.84c-7.36,14.26-17.79,26.7-30.5,36.47
						c-2.94,2.26-5.99,4.37-9.15,6.33c-24.88,15.4-54.26,20.18-82.74,13.48c-28.47-6.71-52.65-24.07-68.03-48.97
						c-15.4-24.88-20.18-54.26-13.48-82.74c5.83-24.79,19.77-46.31,39.7-61.63c2.96-2.27,6.05-4.41,9.27-6.41
						C1864.07,816.71,1926.56,828.87,1960.35,872.85z"/>
				</g>
			</g>
		</g>
		<g>
			<path class="st6" d="M436.9,1929.68c0,16.3,13.35,29.64,29.67,29.64H2071c16.32,0,29.67-13.34,29.67-29.64l13.35-922.02
				c0-16.3-19.21-48.13-54.41-45.74L491.58,921.35c-20.48-0.53-40.27,7.35-54.77,21.8c-14.5,14.45-22.43,34.21-21.95,54.67
				L436.9,1929.68z"/>
			<path class="st7" d="M466.19,1901.24c0,15.44,12.63,28.07,28.07,28.07H2032.3c15.44,0,28.07-12.63,28.07-28.07l12.6-837.02
				c-1.48-50.37-45.64-68.47-72.41-67.4L497.75,956.5c-14.38-0.39-28.29,5.16-38.48,15.32c-10.19,10.16-15.79,24.07-15.43,38.45
				L466.19,1901.24z"/>
			<path class="st8" d="M490.91,1882.83c0,14.68,12.2,26.7,27.12,26.7h1485.76c14.91,0,27.12-12.01,27.12-26.7l23.22-826.42
				c-1.43-47.91-55.15-34.77-81.01-33.76L521.4,984.31c-13.9-0.37-27.33,4.9-37.17,14.57c-9.84,9.66-15.25,22.89-14.91,36.57
				L490.91,1882.83z"/>
			<g>
				<path class="st9" d="M2043.75,1388.57c-0.02,0-0.04,0-0.06,0c-2.27-0.03-4.09-1.47-4.05-3.22l1-52.38
					c0.03-1.74,1.87-3.13,4.11-3.13c0.02,0,0.04,0,0.06,0c2.27,0.03,4.09,1.47,4.05,3.22l-1,52.38
					C2047.83,1387.18,2046,1388.57,2043.75,1388.57z"/>
				<path class="st9" d="M2046.2,1260.22c-0.02,0-0.04,0-0.06,0c-2.27-0.03-4.09-1.47-4.05-3.22l3.82-200.61
					c-0.07-11.92-4.76-21.43-13.93-28.21c-17.13-12.66-44.32-12.01-45.46-11.97l-480.33-9.94c-2.27-0.04-4.06-1.51-4-3.26
					c0.06-1.75,1.8-3.24,4.22-3.09l480.05,9.94c2.99-0.14,31.94-0.52,51.22,13.73c10.85,8.02,16.39,19.07,16.47,32.83l-3.82,200.68
					C2050.27,1258.82,2048.44,1260.22,2046.2,1260.22z"/>
			</g>
			<path class="st10" d="M347.09,2035.86h1789.32c6.85,0,12.46-5.61,12.46-12.46v-56.1c0-6.85-5.61-12.46-12.46-12.46H347.09
				c-6.85,0-12.46,5.61-12.46,12.46v56.1C334.63,2030.25,340.24,2035.86,347.09,2035.86z"/>
			<g>
				<path class="st11" d="M972.7,1083.85l-408-2.86c-3.01-0.02-5.43-2.48-5.41-5.48l0.18-26.05c0.02-3.01,2.48-5.43,5.48-5.41
					l408,2.86c3.01,0.02,5.43,2.48,5.41,5.48l-0.18,26.05C978.16,1081.45,975.7,1083.87,972.7,1083.85z"/>
				<path class="st11" d="M1235.12,1086.49l-136.53-0.96c-2.89-0.02-5.21-2.38-5.19-5.26l0.19-26.49c0.02-2.89,2.38-5.21,5.26-5.19
					l136.53,0.96c2.89,0.02,5.21,2.38,5.19,5.26l-0.19,26.49C1240.36,1084.19,1238.01,1086.51,1235.12,1086.49z"/>
				<path class="st11" d="M1552.61,1088.72l-273.67-1.92c-4.59-0.03-8.28-3.78-8.25-8.36l0.14-20.33c0.03-4.59,3.78-8.28,8.36-8.25
					l273.67,1.92c4.59,0.03,8.28,3.78,8.25,8.36l-0.14,20.33C1560.95,1085.06,1557.2,1088.75,1552.61,1088.72z"/>
				<path class="st11" d="M662.15,1146.6l-95.68-0.67c-4.59-0.03-8.28-3.78-8.25-8.36l0.14-20.33c0.03-4.59,3.78-8.28,8.36-8.25
					l95.68,0.67c4.59,0.03,8.28,3.78,8.25,8.36l-0.14,20.33C670.48,1142.94,666.74,1146.63,662.15,1146.6z"/>
				<path class="st11" d="M973.07,1148.84l-293.75-2.06c-3.01-0.02-5.43-2.48-5.41-5.48l0.18-26.05c0.02-3.01,2.48-5.43,5.48-5.41
					l293.75,2.06c3.01,0.02,5.43,2.48,5.41,5.48l-0.18,26.05C978.53,1146.44,976.08,1148.86,973.07,1148.84z"/>
				<path class="st11" d="M1235.85,1151.48l-136.53-0.96c-2.89-0.02-5.21-2.38-5.19-5.26l0.19-26.49c0.02-2.89,2.38-5.21,5.26-5.19
					l136.53,0.96c2.89,0.02,5.21,2.38,5.19,5.26l-0.19,26.49C1241.09,1149.18,1238.73,1151.5,1235.85,1151.48z"/>
				<path class="st11" d="M1789.82,1155.36l-408.64-2.86c-4.59-0.03-8.28-3.78-8.25-8.36l0.14-20.33c0.03-4.59,3.78-8.28,8.36-8.25
					l408.64,2.86c4.59,0.03,8.28,3.78,8.25,8.36l-0.14,20.33C1798.15,1151.7,1794.4,1155.39,1789.82,1155.36z"/>
				<path class="st11" d="M661.61,1211.48l-95.68-0.67c-4.59-0.03-8.28-3.78-8.25-8.36l0.14-20.33c0.03-4.59,3.78-8.28,8.36-8.25
					l95.68,0.67c4.59,0.03,8.28,3.78,8.25,8.36l-0.14,20.33C669.94,1207.82,666.2,1211.51,661.61,1211.48z"/>
				<path class="st11" d="M972.47,1213.73l-293.75-2.06c-3.01-0.02-5.43-2.48-5.41-5.48l0.18-26.05c0.02-3.01,2.48-5.43,5.48-5.41
					l293.75,2.06c3.01,0.02,5.43,2.48,5.41,5.48l-0.18,26.05C977.93,1211.33,975.48,1213.75,972.47,1213.73z"/>
				<path class="st11" d="M1235.29,1216.37l-136.53-0.96c-2.89-0.02-5.21-2.38-5.19-5.26l0.19-26.49c0.02-2.89,2.38-5.21,5.26-5.19
					l136.53,0.96c2.89,0.02,5.21,2.38,5.19,5.26l-0.19,26.49C1240.53,1214.07,1238.17,1216.39,1235.29,1216.37z"/>
				<path class="st11" d="M1970.28,1221.52l-537.52-3.76c-4.59-0.03-8.28-3.78-8.25-8.36l0.14-20.33c0.03-4.59,3.78-8.28,8.36-8.25
					l537.52,3.76c4.59,0.03,8.28,3.78,8.25,8.36l-0.14,20.33C1978.61,1217.86,1974.87,1221.55,1970.28,1221.52z"/>
				<path class="st11" d="M662.06,1276.47l-95.68-0.67c-4.59-0.03-8.28-3.78-8.25-8.36l0.14-20.33c0.03-4.59,3.78-8.28,8.36-8.25
					l95.68,0.67c4.59,0.03,8.28,3.78,8.25,8.36l-0.14,20.33C670.39,1272.81,666.65,1276.5,662.06,1276.47z"/>
				<path class="st11" d="M973.62,1278.72l-293.75-2.06c-3.01-0.02-5.43-2.48-5.41-5.48l0.18-26.05c0.02-3.01,2.48-5.43,5.48-5.41
					l293.75,2.06c3.01,0.02,5.43,2.48,5.41,5.48l-0.18,26.05C979.08,1276.32,976.62,1278.74,973.62,1278.72z"/>
				<path class="st11" d="M1236.01,1281.36l-136.53-0.96c-2.89-0.02-5.21-2.38-5.19-5.26l0.19-26.49c0.02-2.89,2.38-5.21,5.26-5.19
					l136.53,0.96c2.89,0.02,5.21,2.38,5.19,5.26l-0.19,26.49C1241.25,1279.06,1238.9,1281.38,1236.01,1281.36z"/>
				<path class="st11" d="M1972.74,1286.52l-537.52-3.76c-4.59-0.03-8.28-3.78-8.25-8.36l0.14-20.33c0.03-4.59,3.78-8.28,8.36-8.25
					l537.52,3.76c4.59,0.03,8.28,3.78,8.25,8.36l-0.14,20.33C1981.07,1282.86,1977.33,1286.55,1972.74,1286.52z"/>
				<path class="st11" d="M661.25,1343.9l-95.68-0.67c-4.59-0.03-8.28-3.78-8.25-8.36l0.14-20.33c0.03-4.59,3.78-8.28,8.36-8.25
					l95.68,0.67c4.59,0.03,8.28,3.78,8.25,8.36l-0.14,20.33C669.58,1340.23,665.83,1343.93,661.25,1343.9z"/>
				<path class="st11" d="M972.54,1346.14l-293.75-2.06c-3.01-0.02-5.43-2.48-5.41-5.48l0.18-26.05c0.02-3.01,2.48-5.43,5.48-5.41
					l293.75,2.06c3.01,0.02,5.43,2.48,5.41,5.48l-0.18,26.05C978,1343.74,975.55,1346.16,972.54,1346.14z"/>
				<path class="st11" d="M1235.09,1348.78l-136.53-0.96c-2.89-0.02-5.21-2.38-5.19-5.26l0.19-26.49c0.02-2.89,2.38-5.21,5.26-5.19
					l136.53,0.96c2.89,0.02,5.21,2.38,5.19,5.26l-0.19,26.49C1240.33,1346.48,1237.98,1348.8,1235.09,1348.78z"/>
				<path class="st11" d="M1971.17,1353.94l-537.52-3.76c-4.59-0.03-8.28-3.78-8.25-8.36l0.14-20.33c0.03-4.59,3.78-8.28,8.36-8.25
					l537.52,3.76c4.59,0.03,8.28,3.78,8.25,8.36l-0.14,20.33C1979.5,1350.28,1975.75,1353.97,1971.17,1353.94z"/>
				<path class="st11" d="M661.7,1408.88l-95.68-0.67c-4.59-0.03-8.28-3.78-8.25-8.36l0.14-20.33c0.03-4.59,3.78-8.28,8.36-8.25
					l95.68,0.67c4.59,0.03,8.28,3.78,8.25,8.36l-0.14,20.33C670.03,1405.22,666.28,1408.92,661.7,1408.88z"/>
				<path class="st11" d="M973.69,1411.14l-293.75-2.06c-3.01-0.02-5.43-2.48-5.41-5.48l0.18-26.05c0.02-3.01,2.48-5.43,5.48-5.41
					l293.75,2.06c3.01,0.02,5.43,2.48,5.41,5.48l-0.18,26.05C979.15,1408.74,976.69,1411.16,973.69,1411.14z"/>
				<path class="st11" d="M1235.82,1413.77l-136.53-0.96c-2.89-0.02-5.21-2.38-5.19-5.26l0.19-26.49c0.02-2.89,2.38-5.21,5.26-5.19
					l136.53,0.96c2.89,0.02,5.21,2.38,5.19,5.26l-0.19,26.49C1241.06,1411.47,1238.7,1413.79,1235.82,1413.77z"/>
				<path class="st11" d="M1599.54,1416.32l-322.89-2.26c-4.59-0.03-8.28-3.78-8.25-8.36l0.14-20.33c0.03-4.59,3.78-8.28,8.36-8.25
					l322.89,2.26c4.59,0.03,8.28,3.78,8.25,8.36l-0.14,20.33C1607.87,1412.66,1604.12,1416.35,1599.54,1416.32z"/>
				<path class="st11" d="M973.31,1476.02l-410.28-2.87c-3.01-0.02-5.43-2.48-5.41-5.48l0.18-26.05c0.02-3.01,2.48-5.43,5.48-5.41
					l410.28,2.87c3.01,0.02,5.43,2.48,5.41,5.48l-0.18,26.05C978.77,1473.62,976.32,1476.04,973.31,1476.02z"/>
				<path class="st11" d="M1235.26,1478.66l-136.53-0.96c-2.89-0.02-5.21-2.38-5.19-5.26l0.19-26.49c0.02-2.89,2.38-5.21,5.26-5.19
					l136.53,0.96c2.89,0.02,5.21,2.38,5.19,5.26l-0.19,26.49C1240.5,1476.36,1238.14,1478.68,1235.26,1478.66z"/>
				<path class="st11" d="M1759.36,1482.33l-406.65-2.85c-4.59-0.03-8.28-3.78-8.25-8.36l0.14-20.33c0.03-4.59,3.78-8.28,8.36-8.25
					l406.65,2.85c4.59,0.03,8.28,3.78,8.25,8.36l-0.14,20.33C1767.69,1478.67,1763.95,1482.36,1759.36,1482.33z"/>
				<path class="st11" d="M657.38,1538.73l-91.19-0.64c-4.59-0.03-8.28-3.78-8.25-8.36l0.14-20.33c0.03-4.59,3.78-8.28,8.36-8.25
					l91.19,0.64c4.59,0.03,8.28,3.78,8.25,8.36l-0.14,20.33C665.71,1535.07,661.97,1538.76,657.38,1538.73z"/>
				<path class="st11" d="M974.23,1541.02l-293.75-2.06c-3.01-0.02-5.43-2.48-5.41-5.48l0.18-26.05c0.02-3.01,2.48-5.43,5.48-5.41
					l293.75,2.06c3.01,0.02,5.43,2.48,5.41,5.48l-0.18,26.05C979.69,1538.62,977.24,1541.04,974.23,1541.02z"/>
				<path class="st11" d="M1235.98,1543.65l-136.53-0.96c-2.89-0.02-5.21-2.38-5.19-5.26l0.19-26.49c0.02-2.89,2.38-5.21,5.26-5.19
					l136.53,0.96c2.89,0.02,5.21,2.38,5.19,5.26l-0.19,26.49C1241.22,1541.35,1238.87,1543.67,1235.98,1543.65z"/>
				<path class="st11" d="M1973.46,1548.81l-556.34-3.9c-4.59-0.03-8.28-3.78-8.25-8.36l0.14-20.33c0.03-4.59,3.78-8.28,8.36-8.25
					l556.34,3.9c4.59,0.03,8.28,3.78,8.25,8.36l-0.14,20.33C1981.79,1545.15,1978.04,1548.85,1973.46,1548.81z"/>
				<path class="st11" d="M657.92,1732.66l-95.68-0.67c-4.59-0.03-8.28-3.78-8.25-8.36l0.14-20.33c0.03-4.59,3.78-8.28,8.36-8.25
					l95.68,0.67c4.59,0.03,8.28,3.78,8.25,8.36l-0.14,20.33C666.25,1729,662.51,1732.69,657.92,1732.66z"/>
				<path class="st11" d="M970.06,1734.91l-293.75-2.06c-3.01-0.02-5.43-2.48-5.41-5.48l0.18-26.05c0.02-3.01,2.48-5.43,5.48-5.41
					l293.75,2.06c3.01,0.02,5.43,2.48,5.41,5.48l-0.18,26.05C975.52,1732.51,973.06,1734.93,970.06,1734.91z"/>
				<path class="st11" d="M1232.04,1737.55l-136.53-0.96c-2.89-0.02-5.21-2.38-5.19-5.26l0.19-26.49c0.02-2.89,2.38-5.21,5.26-5.19
					l136.53,0.96c2.89,0.02,5.21,2.38,5.19,5.26l-0.19,26.49C1237.28,1735.25,1234.93,1737.57,1232.04,1737.55z"/>
				<path class="st11" d="M1595.76,1740.1l-322.89-2.26c-4.59-0.03-8.28-3.78-8.25-8.36l0.14-20.33c0.03-4.59,3.78-8.28,8.36-8.25
					l322.89,2.26c4.59,0.03,8.28,3.78,8.25,8.36l-0.14,20.33C1604.09,1736.44,1600.35,1740.13,1595.76,1740.1z"/>
				<path class="st11" d="M969.68,1799.8l-410.28-2.87c-3.01-0.02-5.43-2.48-5.41-5.48l0.18-26.05c0.02-3.01,2.48-5.43,5.48-5.41
					l410.28,2.87c3.01,0.02,5.43,2.48,5.41,5.48l-0.18,26.05C975.14,1797.4,972.69,1799.82,969.68,1799.8z"/>
				<path class="st11" d="M1231.48,1802.43l-136.53-0.96c-2.89-0.02-5.21-2.38-5.19-5.26l0.19-26.49c0.02-2.89,2.38-5.21,5.26-5.19
					l136.53,0.96c2.89,0.02,5.21,2.38,5.19,5.26l-0.19,26.49C1236.72,1800.13,1234.37,1802.45,1231.48,1802.43z"/>
				<path class="st11" d="M1755.36,1806.1l-406.65-2.85c-4.59-0.03-8.28-3.78-8.25-8.36l0.14-20.33c0.03-4.59,3.78-8.28,8.36-8.25
					l406.65,2.85c4.59,0.03,8.28,3.78,8.25,8.36l-0.14,20.33C1763.69,1802.44,1759.94,1806.14,1755.36,1806.1z"/>
				<path class="st11" d="M653.6,1862.5l-91.19-0.64c-4.59-0.03-8.28-3.78-8.25-8.36l0.14-20.33c0.03-4.59,3.78-8.28,8.36-8.25
					l91.19,0.64c4.59,0.03,8.28,3.78,8.25,8.36l-0.14,20.33C661.93,1858.84,658.19,1862.54,653.6,1862.5z"/>
				<path class="st11" d="M970.6,1864.79l-293.75-2.06c-3.01-0.02-5.43-2.48-5.41-5.48l0.18-26.05c0.02-3.01,2.48-5.43,5.48-5.41
					l293.75,2.06c3.01,0.02,5.43,2.48,5.41,5.48l-0.18,26.05C976.06,1862.39,973.61,1864.81,970.6,1864.79z"/>
				<path class="st11" d="M1232.21,1867.42l-136.53-0.96c-2.89-0.02-5.21-2.38-5.19-5.26l0.19-26.49c0.02-2.89,2.38-5.21,5.26-5.19
					l136.53,0.96c2.89,0.02,5.21,2.38,5.19,5.26l-0.19,26.49C1237.45,1865.12,1235.09,1867.44,1232.21,1867.42z"/>
				<path class="st11" d="M1969.45,1872.59l-556.34-3.9c-4.59-0.03-8.28-3.78-8.25-8.36l0.14-20.33c0.03-4.59,3.78-8.28,8.36-8.25
					l556.34,3.9c4.59,0.03,8.28,3.78,8.25,8.36l-0.14,20.33C1977.78,1868.93,1974.04,1872.62,1969.45,1872.59z"/>
				<path class="st11" d="M655.66,1604.81l-91.19-0.64c-4.59-0.03-8.28-3.78-8.25-8.36l0.14-20.33c0.03-4.59,3.78-8.28,8.36-8.25
					l91.19,0.64c4.59,0.03,8.28,3.78,8.25,8.36l-0.14,20.33C663.99,1601.15,660.24,1604.84,655.66,1604.81z"/>
				<path class="st11" d="M971.44,1607.09l-293.75-2.06c-3.01-0.02-5.43-2.48-5.41-5.48l0.18-26.05c0.02-3.01,2.48-5.43,5.48-5.41
					l293.75,2.06c3.01,0.02,5.43,2.48,5.41,5.48l-0.18,26.05C976.9,1604.69,974.45,1607.11,971.44,1607.09z"/>
				<path class="st11" d="M1233.8,1609.73l-136.53-0.96c-2.89-0.02-5.21-2.38-5.19-5.26l0.19-26.49c0.02-2.89,2.38-5.21,5.26-5.19
					l136.53,0.96c2.89,0.02,5.21,2.38,5.19,5.26l-0.19,26.49C1239.04,1607.42,1236.69,1609.75,1233.8,1609.73z"/>
				<path class="st11" d="M1968.61,1614.87l-556.34-3.9c-4.59-0.03-8.28-3.78-8.25-8.36l0.14-20.33c0.03-4.59,3.78-8.28,8.36-8.25
					l556.34,3.9c4.59,0.03,8.28,3.78,8.25,8.36l-0.14,20.33C1976.94,1611.21,1973.2,1614.9,1968.61,1614.87z"/>
				<path class="st11" d="M656.07,1669.8l-91.19-0.64c-4.59-0.03-8.28-3.78-8.25-8.36l0.14-20.33c0.03-4.59,3.78-8.28,8.36-8.25
					l91.19,0.64c4.59,0.03,8.28,3.78,8.25,8.36l-0.14,20.33C664.4,1666.14,660.65,1669.83,656.07,1669.8z"/>
				<path class="st11" d="M972.59,1672.08l-293.75-2.06c-3.01-0.02-5.43-2.48-5.41-5.48l0.18-26.05c0.02-3.01,2.48-5.43,5.48-5.41
					l293.75,2.06c3.01,0.02,5.43,2.48,5.41,5.48l-0.18,26.05C978.05,1669.68,975.59,1672.1,972.59,1672.08z"/>
				<path class="st11" d="M1234.53,1674.72l-136.53-0.96c-2.89-0.02-5.21-2.38-5.19-5.26l0.19-26.49c0.02-2.89,2.38-5.21,5.26-5.19
					l136.53,0.96c2.89,0.02,5.21,2.38,5.19,5.26l-0.19,26.49C1239.77,1672.41,1237.41,1674.74,1234.53,1674.72z"/>
				<path class="st11" d="M1971.17,1679.88l-556.34-3.9c-4.59-0.03-8.28-3.78-8.25-8.36l0.14-20.33c0.03-4.59,3.78-8.28,8.36-8.25
					l556.34,3.9c4.59,0.03,8.28,3.78,8.25,8.36l-0.14,20.33C1979.5,1676.22,1975.76,1679.91,1971.17,1679.88z"/>
				<path class="st11" d="M1036.4,1909l-7.46-0.05c-1.68-0.01-3.04-1.39-3.03-3.07l6.33-904.17c0.01-1.68,1.39-3.04,3.07-3.03
					l7.46,0.05c1.68,0.01,3.04,1.39,3.03,3.07l-6.33,904.17C1039.46,1907.66,1038.08,1909.01,1036.4,1909z"/>
			</g>
		</g>
		<g>
			<g>
				<g>
					<defs>
						<path id="SVGID_1_" d="M1681.61,2128.36c-232.52,49.31-460.98-99.21-510.29-331.73c-49.31-232.52,99.21-460.98,331.73-510.29
							c208.54-44.23,433.36,35.56,509.05,227.48c8.7,22.07,72.04,31.93,77.13,55.9c6.16,29.06-66.65,106.41-66.45,135.01
							C2024.2,1904.9,1885.06,2085.21,1681.61,2128.36z"/>
					</defs>
					<clipPath id="SVGID_2_">
						<use xlink:href="#SVGID_1_"  style="overflow:visible;"/>
					</clipPath>
					<path class="st12" d="M1321.32,2053c0,0,33.95-453.77,230.5-513.76c0,0,305.85-36.21,481.68,30.48l-37.07,574.76
						C1996.44,2144.48,1499.3,2257.44,1321.32,2053z"/>
				</g>
				<linearGradient id="SVGID_3_" gradientUnits="userSpaceOnUse" x1="1777.3452" y1="1695.0116" x2="1762.6554" y2="881.1898">
					<stop  offset="0" style="stop-color:#FFFFFF"/>
					<stop  offset="1" style="stop-color:#EFEFF4"/>
				</linearGradient>
				<path class="st13" d="M1663.74,1423.35c0,0,31.41,76.3,39.42,136.29c2.35,17.61,15.97,31.47,33.49,34.38
					c37.55,6.24,99.78,9.72,137.65-24.83c8.4-7.67,11.26-19.71,7.43-30.42c-15.6-43.66-96.68-225.45-140.86-253.32L1663.74,1423.35z
					"/>
				<g>
					<linearGradient id="SVGID_4_" gradientUnits="userSpaceOnUse" x1="1625.9277" y1="2067.3843" x2="2033.2455" y2="2076.3857">
						<stop  offset="0" style="stop-color:#FFFFFF"/>
						<stop  offset="1" style="stop-color:#EFEFF4"/>
					</linearGradient>
					<path class="st14" d="M1983.54,1984.43c0.01,0.33,0.03,0.67,0.03,0.99c0.66,94.96-127.75,104.03-127.75,104.03
						s-36.72-61.05-83.85-63.04c-47.12-1.99-112.51,74.77-112.51,74.77l104.57,16.75c0,0,199.41,119.61,336.07-22.49
						C2075.93,2006.95,2018.35,1987.61,1983.54,1984.43z"/>
					<path class="st15" d="M2033.5,1569.72c-129.56,45.94-110.81,147.69-110.81,147.69s59.79,171.86,60.84,267.02
						c34.81,3.18,92.39,22.52,116.56,111.01c3.24-3.37,6.46-6.84,9.63-10.51C2273.07,1895.66,2033.5,1569.72,2033.5,1569.72z"/>
					<path class="st16" d="M1983.54,1989.47c-2.76,0-5.01-2.22-5.04-4.98c-0.82-74.04-37.72-195.53-53.54-244.32
						c-0.86-2.65,0.59-5.49,3.24-6.35c2.68-0.85,5.49,0.59,6.35,3.24c15.97,49.23,53.19,171.89,54.03,247.32
						c0.03,2.78-2.2,5.06-4.98,5.1C1983.58,1989.47,1983.56,1989.47,1983.54,1989.47z"/>
				</g>
				<g>
					<linearGradient id="SVGID_5_" gradientUnits="userSpaceOnUse" x1="1414.0342" y1="1281.0369" x2="1055.5992" y2="1210.525">
						<stop  offset="0" style="stop-color:#FFFFFF"/>
						<stop  offset="1" style="stop-color:#EFEFF4"/>
					</linearGradient>
					<path class="st17" d="M1522.08,1230.99c0,3.8,84.84,240.18,84.84,240.18l133.94-51.31l-47.13-235.99
						C1693.74,1183.87,1522.08,1167.4,1522.08,1230.99z"/>
					<path class="st6" d="M1670.24,1241.36l34.54,122.29c0.44,1.57,0.67,3.15,0.67,4.78c0.01,9.97-2.46,44.29-37.41,39.63
						c-31.72-4.24-60.73-7.63-79.18,1.06c-8.28,3.9-12.25,13.43-9.15,22.05c7.71,21.47,25.99,69.55,48.24,108.89
						c4.52,7.98,14.42,11.09,22.77,7.29c25.16-11.45,77.54-37.07,114.85-67.55c5.06-4.13,7.48-10.63,6.28-17.04
						c-5.87-31.28-23.36-126.43-24.13-153.69c-0.72-25.59,27.99-45.13,40.64-52.47c4.15-2.41,7.09-6.37,8.22-11.03
						c3.97-16.47,7.34-53.75-40.22-61.97c-9.95-1.72-16.44-11.25-14.42-21.14c4.02-19.7,2.74-48.69-34.67-59.37
						c-38.03-10.85-61.95,12.04-74.12,29.59c-4.92,7.1-14.13,9.4-22.01,5.88c-4.49-2.01-9.91-2.09-15.74,2.82
						c-7.85,6.62-19.81,4.6-25.58-3.89c-11.09-16.32-31.23-32.61-65.33-21.58c-60.51,19.58-57.62,89.35-35.44,127.28
						c22.18,37.93,86.58,12.97,117.07-12.16c23.18-19.11,58.47-7.68,74.06-1.1C1665.11,1231.97,1668.78,1236.2,1670.24,1241.36z"/>
					<linearGradient id="SVGID_6_" gradientUnits="userSpaceOnUse" x1="1778.0985" y1="1694.9983" x2="1763.4087" y2="881.1751">
						<stop  offset="0" style="stop-color:#FFFFFF"/>
						<stop  offset="1" style="stop-color:#EFEFF4"/>
					</linearGradient>
					<path class="st18" d="M1753.09,1354.57c0,0-29.05-68.61-5.37-89.89c23.68-21.27,56.72-13.97,55.64,39.01
						C1802.02,1369.58,1753.09,1354.57,1753.09,1354.57z"/>
				</g>
				<g>
					<path class="st6" d="M1806.71,2147.16c-0.39,0.02-0.78,0.03-1.18,0.03l-341.3-0.6c-12.66-0.01-22.9-11.11-22.89-24.79
						c0.01-13.68,10.32-24.99,22.94-24.74l341.3,0.6c12.66,0.01,22.9,11.11,22.89,24.79
						C1828.46,2135.7,1818.82,2146.51,1806.71,2147.16z"/>
					<path class="st6" d="M1004.03,1644.77h426.34c31.45,0,60.08,19.62,73.49,50.37l197.1,451.74h-529.82
						c-20.27,0-38.48-13.39-45.93-33.76l-152.84-418.01C963.53,1670.94,980,1644.77,1004.03,1644.77z"/>
					
						<ellipse transform="matrix(0.9646 -0.2636 0.2636 0.9646 -452.6114 402.2433)" class="st15" cx="1272.41" cy="1887.51" rx="33.8" ry="58.64"/>
				</g>
			</g>
		</g>
		<g>
			<path class="st6" d="M1017.74,917.14l-359.92-2.33c-16.02-0.1-29.04-13.3-28.94-29.32l0,0c0.1-16.02,13.3-29.05,29.32-28.94
				l359.92,2.33c16.02,0.1,29.04,13.3,28.94,29.32l0,0C1046.96,904.22,1033.77,917.24,1017.74,917.14z"/>
			<path class="st15" d="M984.11,595.83l-284.59-1.85c-67.71-0.44-123.47,54.6-123.91,122.31l-0.73,112.72
				c-0.17,25.52,20.58,46.54,46.1,46.7l438.01,2.84c25.52,0.17,46.54-20.58,46.7-46.1l0.73-112.72
				C1106.86,652.03,1051.82,596.27,984.11,595.83z"/>
			<path class="st15" d="M1039.98,893.98l-400.2-2.59c-35.92-0.23-65.5,28.97-65.73,64.88l-0.34,52.51
				c-0.95,145.97,116.86,398.24,262.83,399.18h0c145.97,0.95,267.04-249.77,267.98-395.74l0.34-52.51
				C1105.1,923.79,1075.9,894.21,1039.98,893.98z"/>
			<g>
				<path class="st6" d="M1032.65,757.62c-0.13,19.7-15.19,36.13-34.81,37.85c-106.21,9.3-216.32,8.89-329.62-2.24
					c-19.66-1.93-34.61-18.57-34.49-38.32l0.13-20.71c0.13-19.64,15.11-36.02,34.66-37.84c110.23-10.23,220.44-11.43,330.65,1.61
					c19.29,2.28,33.74,18.8,33.61,38.22L1032.65,757.62z"/>
				<g>
					<path class="st19" d="M749.84,745.43c-0.09,13.38-11.01,24.16-24.39,24.07c-13.38-0.09-24.16-11.01-24.07-24.39
						c0.09-13.38,11.01-24.16,24.39-24.07C739.15,721.13,749.93,732.05,749.84,745.43z"/>
					<path class="st19" d="M965.14,746.82c-0.09,13.38-11.01,24.16-24.39,24.07c-13.38-0.09-24.16-11.01-24.07-24.39
						c0.09-13.38,11.01-24.16,24.39-24.07C954.45,722.52,965.23,733.44,965.14,746.82z"/>
				</g>
				<path class="st4" d="M726.12,778.97c-0.05-0.8,0.55-1.47,1.33-1.52l0,0c0.8-0.05,1.47,0.55,1.52,1.36l0,0
					c0.05,0.78-0.55,1.45-1.36,1.49l0,0c-0.03,0-0.05,0-0.08,0l0,0C726.79,780.3,726.14,779.72,726.12,778.97z M718.84,779.73
					c-0.78-0.16-1.26-0.91-1.13-1.69l0,0c0.16-0.78,0.92-1.29,1.69-1.13l0,0c0.78,0.16,1.26,0.89,1.13,1.69l0,0
					c-0.13,0.67-0.73,1.16-1.41,1.16l0,0C719.02,779.76,718.94,779.73,718.84,779.73z M734.47,777.78
					c-0.23-0.75,0.17-1.55,0.94-1.78l0,0c0.75-0.25,1.55,0.17,1.78,0.92l0,0c0.25,0.75-0.17,1.55-0.92,1.81l0,0l0,0l0,0
					c-0.16,0.05-0.31,0.05-0.44,0.05l0,0C735.21,778.77,734.67,778.41,734.47,777.78z M710.49,776.96c-0.72-0.34-1-1.2-0.66-1.89
					l0,0c0.32-0.72,1.17-1.03,1.89-0.69l0,0c0.72,0.34,1,1.2,0.66,1.89l0,0c-0.24,0.54-0.76,0.82-1.3,0.82l0,0
					C710.91,777.09,710.7,777.06,710.49,776.96z M742.28,774.57c-0.44-0.68-0.22-1.56,0.45-1.99l0,0c0.65-0.41,1.53-0.2,1.97,0.45
					l0,0c0.41,0.68,0.22,1.56-0.45,1.99l0,0l0,0l0,0c-0.23,0.15-0.52,0.2-0.78,0.2l0,0C743,775.23,742.54,774.99,742.28,774.57z
					 M703.09,772.2c-0.59-0.5-0.69-1.4-0.17-2.02l0,0c0.5-0.59,1.4-0.66,2.02-0.17l0,0c0.59,0.5,0.66,1.4,0.17,2.02l0,0
					c-0.29,0.33-0.7,0.51-1.12,0.51l0,0C703.69,772.54,703.35,772.43,703.09,772.2z M749.02,769.52c-0.57-0.55-0.59-1.45-0.04-2.05
					l0,0c0.55-0.57,1.45-0.59,2.02-0.04l0,0c0.57,0.55,0.59,1.45,0.04,2.02l0,0l0,0l0,0c-0.29,0.31-0.65,0.44-1.04,0.43l0,0
					C749.64,769.88,749.3,769.75,749.02,769.52z M697.1,765.76c-0.46-0.65-0.3-1.53,0.32-1.99l0,0c0.65-0.46,1.56-0.33,2.02,0.32
					l0,0c0.46,0.65,0.3,1.53-0.35,1.99l0,0c-0.23,0.18-0.55,0.28-0.83,0.28l0,0C697.82,766.36,697.38,766.15,697.1,765.76z
					 M754.32,762.92c-0.7-0.39-0.92-1.25-0.56-1.95l0,0c0.39-0.7,1.28-0.92,1.95-0.56l0,0c0.7,0.39,0.95,1.27,0.56,1.95l0,0l0,0l0,0
					c-0.26,0.49-0.76,0.75-1.27,0.74l0,0C754.79,763.11,754.53,763.05,754.32,762.92z M692.9,758.04L692.9,758.04L692.9,758.04
					c-0.28-0.73,0.09-1.58,0.81-1.86l0,0c0.73-0.28,1.55,0.09,1.86,0.81l0,0c0.28,0.73-0.09,1.58-0.81,1.86l0,0
					c-0.18,0.05-0.36,0.1-0.55,0.1l0,0C693.67,758.95,693.13,758.61,692.9,758.04z M757.81,755.23c-0.78-0.19-1.24-0.97-1.02-1.74
					l0,0c0.21-0.75,0.99-1.21,1.74-1.02l0,0c0.77,0.21,1.24,0.99,1.02,1.74l0,0c0,0,0,0,0,0.03l0,0c-0.16,0.62-0.76,1.06-1.41,1.05
					l0,0C758.05,755.28,757.92,755.25,757.81,755.23z M690.76,749.51c-0.1-0.78,0.48-1.5,1.25-1.6l0,0c0.78-0.1,1.5,0.48,1.6,1.25
					l0,0c0.1,0.78-0.48,1.5-1.25,1.6l0,0c-0.05,0-0.13,0-0.18,0l0,0C691.48,750.76,690.86,750.24,690.76,749.51z M757.85,745.49
					c0-0.03,0-0.03,0-0.05l0,0c0-0.03,0-0.05,0-0.1l0,0c0.01-0.78,0.63-1.42,1.43-1.42l0,0c0.78,0,1.42,0.66,1.41,1.43l0,0
					c0,0.03,0,0.05,0,0.08l0,0c0,0.03,0,0.05,0,0.08l0,0c-0.01,0.78-0.63,1.42-1.43,1.41l0,0
					C758.49,746.92,757.85,746.27,757.85,745.49z M757.85,745.34L757.85,745.34L757.85,745.34v0.03l0,0
					C757.85,745.34,757.85,745.36,757.85,745.34z M692.05,742.32c-0.8-0.11-1.34-0.81-1.26-1.59l0,0c0.11-0.8,0.84-1.34,1.61-1.23
					l0,0c0.78,0.08,1.34,0.81,1.23,1.59l0,0c-0.08,0.72-0.71,1.26-1.43,1.26l0,0C692.15,742.35,692.1,742.32,692.05,742.32z
					 M756.87,737.33c-0.2-0.75,0.27-1.55,1.02-1.73l0,0c0.78-0.2,1.55,0.27,1.75,1.02l0,0c0.18,0.78-0.27,1.55-1.05,1.75l0,0
					c-0.13,0.02-0.23,0.02-0.36,0.02l0,0C757.61,738.39,757.02,737.98,756.87,737.33z M693.81,734.07
					c-0.72-0.29-1.08-1.12-0.79-1.87l0,0c0.29-0.72,1.12-1.08,1.87-0.79l0,0c0.72,0.29,1.08,1.12,0.79,1.87l0,0
					c-0.24,0.54-0.78,0.9-1.35,0.9l0,0C694.17,734.18,693.99,734.12,693.81,734.07z M753.91,729.83L753.91,729.83
					c-0.38-0.7-0.12-1.58,0.56-1.94l0,0c0.7-0.38,1.55-0.15,1.94,0.56l0,0l0,0l0,0c0.38,0.7,0.14,1.55-0.56,1.94l0,0
					c-0.23,0.13-0.47,0.18-0.7,0.18l0,0C754.66,730.55,754.17,730.29,753.91,729.83z M697.61,726.53c-0.64-0.5-0.79-1.38-0.32-2.02
					l0,0c0.47-0.62,1.38-0.77,2-0.3l0,0c0.64,0.47,0.79,1.35,0.32,2l0,0c-0.29,0.39-0.73,0.59-1.17,0.59l0,0
					C698.16,726.8,697.85,726.72,697.61,726.53z M749.17,723.27L749.17,723.27c-0.54-0.57-0.51-1.48,0.07-2.02l0,0
					c0.6-0.54,1.5-0.51,2.05,0.07l0,0c0.54,0.57,0.51,1.48-0.07,2.02l0,0c-0.29,0.26-0.65,0.38-0.99,0.38l0,0
					C749.84,723.71,749.45,723.58,749.17,723.27z M703.14,720.15c-0.49-0.6-0.4-1.5,0.2-2.02l0,0c0.62-0.49,1.5-0.4,2.02,0.19l0,0
					c0.49,0.63,0.4,1.53-0.19,2.02l0,0c-0.29,0.23-0.6,0.33-0.94,0.33l0,0C703.84,720.67,703.43,720.49,703.14,720.15z
					 M742.96,718.1L742.96,718.1c-0.67-0.42-0.85-1.33-0.43-1.97l0,0c0.42-0.67,1.33-0.87,1.97-0.45l0,0l0,0l0,0
					c0.67,0.44,0.87,1.33,0.45,2l0,0c-0.29,0.41-0.76,0.64-1.22,0.64l0,0C743.48,718.31,743.22,718.26,742.96,718.1z M710.09,715.35
					c-0.33-0.73-0.01-1.58,0.69-1.91l0,0c0.73-0.33,1.58-0.02,1.91,0.71l0,0c0.33,0.7,0.02,1.55-0.71,1.89l0,0
					c-0.18,0.1-0.39,0.15-0.6,0.15l0,0C710.84,716.18,710.32,715.87,710.09,715.35z M735.68,714.64L735.68,714.64
					c-0.75-0.26-1.16-1.07-0.92-1.82l0,0c0.24-0.75,1.04-1.16,1.82-0.89l0,0c0,0,0,0-0.03,0l0,0c0.78,0.24,1.19,1.04,0.92,1.79l0,0
					c-0.19,0.62-0.76,1.01-1.35,1l0,0C735.96,714.72,735.81,714.69,735.68,714.64z M718.01,712.42c-0.15-0.78,0.37-1.53,1.15-1.65
					l0,0c0.78-0.15,1.53,0.35,1.68,1.12l0,0c0.13,0.78-0.37,1.53-1.15,1.68l0,0c-0.1,0.02-0.18,0.02-0.28,0.02l0,0
					C718.75,713.59,718.13,713.12,718.01,712.42z M727.74,713.11L727.74,713.11c-0.78-0.06-1.39-0.73-1.34-1.54l0,0
					c0.06-0.78,0.73-1.37,1.54-1.34l0,0l0,0l0,0c0.78,0.06,1.37,0.73,1.34,1.54l0,0c-0.06,0.75-0.71,1.34-1.43,1.34l0,0
					C727.79,713.11,727.77,713.11,727.74,713.11z"/>
				<path class="st4" d="M941.3,780.37c-0.05-0.8,0.55-1.47,1.33-1.52l0,0c0.8-0.05,1.47,0.55,1.52,1.36l0,0
					c0.05,0.78-0.55,1.45-1.36,1.49l0,0c-0.03,0-0.05,0-0.08,0l0,0C941.97,781.69,941.32,781.12,941.3,780.37z M934.02,781.12
					c-0.78-0.16-1.26-0.91-1.13-1.69l0,0c0.16-0.78,0.91-1.29,1.69-1.13l0,0c0.78,0.16,1.26,0.89,1.13,1.69l0,0
					c-0.13,0.67-0.73,1.16-1.41,1.16l0,0C934.2,781.15,934.13,781.13,934.02,781.12z M949.65,779.18c-0.23-0.75,0.17-1.55,0.94-1.78
					l0,0c0.75-0.25,1.55,0.17,1.78,0.92l0,0c0.25,0.75-0.17,1.55-0.92,1.81l0,0l0,0l0,0c-0.16,0.05-0.31,0.05-0.44,0.05l0,0
					C950.39,780.17,949.85,779.8,949.65,779.18z M925.68,778.35c-0.72-0.34-1-1.2-0.66-1.89l0,0c0.32-0.72,1.17-1.03,1.89-0.69l0,0
					c0.72,0.34,1,1.2,0.66,1.89l0,0c-0.24,0.54-0.76,0.82-1.3,0.82l0,0C926.09,778.48,925.88,778.46,925.68,778.35z M957.46,775.97
					c-0.44-0.68-0.22-1.56,0.45-1.99l0,0c0.65-0.41,1.53-0.2,1.97,0.45l0,0c0.41,0.68,0.22,1.56-0.45,1.99l0,0l0,0l0,0
					c-0.23,0.15-0.52,0.2-0.78,0.2l0,0C958.18,776.62,957.72,776.38,957.46,775.97z M918.28,773.59c-0.59-0.5-0.69-1.4-0.17-2.02
					l0,0c0.5-0.59,1.4-0.66,2.02-0.17l0,0c0.59,0.5,0.66,1.4,0.17,2.02l0,0c-0.29,0.33-0.7,0.51-1.12,0.51l0,0
					C918.87,773.93,918.53,773.83,918.28,773.59z M964.2,770.91c-0.57-0.55-0.59-1.45-0.04-2.05l0,0c0.55-0.57,1.45-0.59,2.02-0.04
					l0,0c0.57,0.55,0.59,1.45,0.04,2.02l0,0l0,0l0,0c-0.29,0.31-0.65,0.44-1.04,0.43l0,0C964.82,771.28,964.49,771.15,964.2,770.91z
					 M912.28,767.16c-0.46-0.65-0.3-1.53,0.32-1.99l0,0c0.65-0.46,1.56-0.33,2.02,0.32l0,0c0.46,0.65,0.3,1.53-0.35,1.99l0,0
					c-0.23,0.18-0.55,0.28-0.83,0.28l0,0C913,767.76,912.57,767.55,912.28,767.16z M969.5,764.32c-0.7-0.39-0.92-1.25-0.56-1.95l0,0
					c0.39-0.7,1.28-0.92,1.95-0.56l0,0c0.7,0.39,0.95,1.27,0.56,1.95l0,0l0,0l0,0c-0.26,0.49-0.76,0.75-1.27,0.74l0,0
					C969.97,764.5,969.71,764.45,969.5,764.32z M908.09,759.44L908.09,759.44L908.09,759.44c-0.28-0.73,0.09-1.58,0.82-1.86l0,0
					c0.73-0.28,1.55,0.09,1.86,0.81l0,0c0.28,0.73-0.09,1.58-0.81,1.86l0,0c-0.18,0.05-0.36,0.1-0.55,0.1l0,0
					C908.86,760.35,908.32,760.01,908.09,759.44z M973,756.62c-0.78-0.19-1.24-0.97-1.02-1.74l0,0c0.21-0.75,0.99-1.21,1.74-1.02
					l0,0c0.78,0.21,1.24,0.99,1.02,1.74l0,0c0,0,0,0,0,0.03l0,0c-0.16,0.62-0.76,1.06-1.41,1.05l0,0
					C973.23,756.68,973.1,756.65,973,756.62z M905.94,750.9c-0.1-0.78,0.48-1.5,1.25-1.6l0,0c0.78-0.1,1.5,0.48,1.6,1.25l0,0
					c0.1,0.78-0.48,1.5-1.25,1.6l0,0c-0.05,0-0.13,0-0.18,0l0,0C906.66,752.15,906.04,751.63,905.94,750.9z M973.03,746.89
					c0-0.03,0-0.03,0-0.05l0,0c0-0.03,0-0.05,0-0.1l0,0c0-0.78,0.63-1.42,1.43-1.42l0,0c0.78,0.01,1.42,0.66,1.41,1.43l0,0
					c0,0.03,0,0.05,0,0.08l0,0c0,0.03,0,0.05,0,0.08l0,0c-0.01,0.78-0.63,1.42-1.43,1.41l0,0
					C973.67,748.31,973.03,747.66,973.03,746.89z M973.03,746.73L973.03,746.73L973.03,746.73l0,0.03l0,0
					C973.03,746.73,973.03,746.76,973.03,746.73z M907.23,743.71c-0.8-0.11-1.34-0.81-1.26-1.59l0,0c0.11-0.8,0.84-1.34,1.61-1.23
					l0,0c0.78,0.08,1.34,0.81,1.23,1.59l0,0c-0.08,0.72-0.71,1.26-1.43,1.26l0,0C907.33,743.74,907.28,743.72,907.23,743.71z
					 M972.05,738.72c-0.2-0.75,0.27-1.55,1.02-1.73l0,0c0.78-0.2,1.55,0.27,1.75,1.02l0,0c0.18,0.78-0.27,1.55-1.05,1.75l0,0
					c-0.13,0.02-0.23,0.02-0.36,0.02l0,0C972.79,739.79,972.2,739.37,972.05,738.72z M908.99,735.47c-0.72-0.29-1.08-1.12-0.79-1.87
					l0,0c0.29-0.72,1.12-1.08,1.87-0.79l0,0c0.72,0.29,1.08,1.12,0.79,1.87l0,0c-0.24,0.54-0.78,0.9-1.35,0.9l0,0
					C909.36,735.57,909.17,735.52,908.99,735.47z M969.09,731.22L969.09,731.22c-0.38-0.7-0.12-1.58,0.56-1.94l0,0
					c0.7-0.38,1.55-0.15,1.94,0.56l0,0l0,0l0,0c0.38,0.7,0.14,1.55-0.56,1.94l0,0c-0.23,0.13-0.47,0.18-0.7,0.18l0,0
					C969.84,731.95,969.35,731.69,969.09,731.22z M912.8,727.93c-0.64-0.5-0.79-1.38-0.32-2.02l0,0c0.47-0.62,1.38-0.77,2-0.3l0,0
					c0.64,0.47,0.79,1.35,0.32,2l0,0c-0.29,0.39-0.73,0.59-1.17,0.59l0,0C913.34,728.19,913.03,728.11,912.8,727.93z M964.35,724.66
					L964.35,724.66c-0.54-0.57-0.51-1.48,0.06-2.02l0,0c0.6-0.54,1.5-0.51,2.05,0.07l0,0c0.54,0.57,0.51,1.48-0.06,2.02l0,0
					c-0.29,0.26-0.65,0.38-0.99,0.38l0,0C965.02,725.11,964.63,724.98,964.35,724.66z M918.33,721.54c-0.49-0.6-0.4-1.5,0.2-2.02
					l0,0c0.62-0.49,1.5-0.4,2.02,0.19l0,0c0.49,0.63,0.4,1.53-0.19,2.02l0,0c-0.29,0.23-0.6,0.33-0.94,0.33l0,0
					C919.02,722.07,918.61,721.88,918.33,721.54z M958.14,719.5L958.14,719.5c-0.67-0.42-0.85-1.33-0.43-1.97l0,0
					c0.42-0.67,1.33-0.87,1.97-0.45l0,0l0,0l0,0c0.67,0.44,0.87,1.33,0.45,2l0,0c-0.29,0.41-0.76,0.64-1.22,0.64l0,0
					C958.66,719.71,958.4,719.65,958.14,719.5z M925.27,716.75c-0.33-0.73-0.01-1.58,0.69-1.91l0,0c0.73-0.33,1.58-0.02,1.91,0.71
					l0,0c0.33,0.7,0.02,1.55-0.71,1.89l0,0c-0.18,0.1-0.39,0.15-0.6,0.15l0,0C926.02,717.58,925.5,717.27,925.27,716.75z
					 M950.86,716.03L950.86,716.03c-0.75-0.26-1.16-1.07-0.92-1.82l0,0c0.24-0.75,1.04-1.16,1.82-0.89l0,0c0,0,0,0-0.03,0l0,0
					c0.78,0.24,1.19,1.04,0.92,1.79l0,0c-0.19,0.62-0.76,1.01-1.35,1l0,0C951.15,716.11,950.99,716.08,950.86,716.03z
					 M933.19,713.82c-0.15-0.78,0.37-1.52,1.15-1.65l0,0c0.78-0.15,1.53,0.35,1.68,1.12l0,0c0.13,0.78-0.37,1.53-1.15,1.68l0,0
					c-0.1,0.02-0.18,0.02-0.28,0.02l0,0C933.93,714.99,933.31,714.52,933.19,713.82z M942.92,714.5L942.92,714.5
					c-0.78-0.06-1.39-0.73-1.34-1.54l0,0c0.06-0.78,0.73-1.37,1.54-1.34l0,0l0,0l0,0c0.78,0.06,1.37,0.73,1.34,1.54l0,0
					c-0.06,0.75-0.71,1.34-1.43,1.34l0,0C942.97,714.5,942.95,714.5,942.92,714.5z"/>
			</g>
			<path class="st15" d="M613.56,536.96c-0.05,7.43-6.11,13.41-13.53,13.36c-7.43-0.05-13.41-6.11-13.36-13.53
				c0.05-7.43,6.11-13.41,13.53-13.36C607.62,523.48,613.61,529.54,613.56,536.96z"/>
			<path class="st6" d="M599.39,647.98c0,0,32.09,4.32,49.92-37.49l-8.42-17.65c-2.87-6.01-10.09-8.52-16.06-5.58l-18.49,9.1
				c-4.06,2-6.65,6.12-6.68,10.65L599.39,647.98z"/>
			<path class="st15" d="M602.73,543.11c-0.35-0.82-1.58-0.45-1.42,0.42L612,602.62c0.24,1.34,1.14,2.48,2.4,3.02
				c1.26,0.54,2.7,0.41,3.84-0.34l3.43-2.26c2.86-1.88,3.97-5.52,2.64-8.67L602.73,543.11z"/>
			<path class="st15" d="M1070.74,539.93c-0.05,7.43,5.93,13.49,13.36,13.53c7.43,0.05,13.49-5.93,13.53-13.36
				c0.05-7.43-5.93-13.49-13.36-13.53C1076.85,526.52,1070.79,532.5,1070.74,539.93z"/>
			<path class="st6" d="M1083.47,651.12c0,0-32.14,3.9-49.43-38.13l8.65-17.54c2.94-5.97,10.2-8.38,16.13-5.37l18.37,9.34
				c4.04,2.05,6.57,6.21,6.54,10.73L1083.47,651.12z"/>
			<path class="st15" d="M1082.9,546.65l-11.4,58.69c-0.27,1.4-1.23,2.57-2.54,3.11c-1.32,0.54-2.82,0.39-4-0.41l-3.19-2.16
				c-2.83-1.91-3.89-5.57-2.53-8.71l22.24-50.97C1081.84,545.4,1083.07,545.78,1082.9,546.65z"/>
			<path class="st2" d="M691.06,662.6c-7.3-0.05-13.48-5.66-14.09-13.08c-0.64-7.84,5.19-14.72,13.03-15.36
				c103.57-8.52,198.18-8.2,289.22,0.96c7.83,0.79,13.53,7.77,12.74,15.6c-0.79,7.83-7.74,13.54-15.6,12.74
				c-89.3-8.99-182.21-9.29-284.04-0.91C691.9,662.59,691.48,662.6,691.06,662.6z"/>
			<path class="st1" d="M834.91,809.82c-57.55-0.37-115.54-3.6-173.59-9.68c-21.28-2.23-37.22-21.16-37.07-44.03l0.15-23.08
				c0.15-22.69,16.18-41.39,37.3-43.5c124.56-12.43,237.23-11.9,344.44,1.64c20.75,2.62,36.28,21.5,36.14,43.91l-0.15,23.87
				c-0.15,22.81-16.25,41.52-37.47,43.52C948.79,807.74,892.07,810.19,834.91,809.82z M842.98,683.3
				c-57.84-0.37-117.89,2.59-181.01,8.89c-19.75,1.97-34.75,19.53-34.89,40.85l-0.15,23.08c-0.14,21.48,14.77,39.26,34.67,41.34
				c115.53,12.1,230.87,12.89,342.8,2.34c19.83-1.87,34.9-19.44,35.04-40.87l0.15-23.87c0.14-21.06-14.39-38.79-33.79-41.24
				C953.11,687.18,899.09,683.67,842.98,683.3z"/>
			<path class="st1" d="M930.76,1053.82l-186.43-1.21c-17.85-0.12-32.27-14.73-32.16-32.58l0.34-53.08
				c0.12-17.85,14.73-32.27,32.58-32.16L931.52,936c17.85,0.12,32.27,14.73,32.16,32.58l-0.34,53.08
				C963.22,1039.51,948.61,1053.93,930.76,1053.82z M745.07,937.38c-16.42-0.11-29.86,13.16-29.97,29.58l-0.34,53.08
				c-0.11,16.42,13.16,29.86,29.58,29.97l186.43,1.21c16.42,0.11,29.86-13.16,29.97-29.58l0.34-53.08
				c0.11-16.42-13.16-29.86-29.58-29.97L745.07,937.38z"/>
			<g>
				<path class="st1" d="M762.57,967.27c-0.34,0-0.67-0.03-1.01-0.11c-0.34-0.05-0.65-0.16-0.96-0.29c-0.31-0.13-0.62-0.29-0.9-0.5
					c-0.28-0.18-0.54-0.39-0.77-0.65c-0.95-0.96-1.51-2.31-1.5-3.66c0.01-1.37,0.59-2.69,1.55-3.67c1.93-1.9,5.4-1.88,7.33,0.05
					c0.23,0.26,0.44,0.52,0.64,0.81c0.18,0.29,0.33,0.57,0.46,0.88c0.13,0.34,0.23,0.65,0.28,0.99c0.07,0.34,0.1,0.67,0.1,1.01
					c0,0.34-0.03,0.67-0.11,1.01c-0.05,0.34-0.16,0.65-0.29,0.96c-0.13,0.34-0.29,0.62-0.47,0.9c-0.21,0.28-0.42,0.54-0.65,0.77
					c-0.24,0.26-0.52,0.46-0.81,0.64c-0.29,0.21-0.57,0.36-0.88,0.49c-0.31,0.13-0.65,0.23-0.99,0.28
					C763.27,967.25,762.9,967.28,762.57,967.27z"/>
				<path class="st1" d="M879.72,962.86c0.02-2.85,2.34-5.16,5.19-5.15l0,0c2.87,0.02,5.19,2.36,5.17,5.21l0,0
					c-0.02,2.85-2.37,5.16-5.24,5.15l0,0C881.99,968.05,879.7,965.7,879.72,962.86z M855.25,962.7c0.02-2.85,2.36-5.16,5.21-5.15
					l0,0c2.87,0.02,5.16,2.36,5.15,5.21l0,0c-0.02,2.85-2.34,5.16-5.21,5.15l0,0C857.54,967.89,855.23,965.55,855.25,962.7z
					 M830.8,962.54c0.02-2.85,2.34-5.16,5.21-5.15l0,0c2.85,0.02,5.16,2.36,5.14,5.21l0,0c-0.02,2.85-2.36,5.16-5.21,5.15l0,0
					C833.07,967.73,830.78,965.39,830.8,962.54z M806.33,962.38c0.02-2.85,2.36-5.16,5.21-5.15l0,0c2.87,0.02,5.16,2.36,5.14,5.21
					l0,0c-0.02,2.85-2.34,5.16-5.21,5.15l0,0C808.63,967.57,806.32,965.23,806.33,962.38z M781.89,962.22
					c0.02-2.85,2.34-5.16,5.21-5.14l0,0c2.85,0.02,5.16,2.36,5.15,5.21l0,0c-0.02,2.85-2.36,5.16-5.21,5.15l0,0
					C784.16,967.41,781.87,965.07,781.89,962.22z"/>
				<path class="st1" d="M909.3,968.23c-1.37-0.01-2.69-0.56-3.64-1.55c-0.26-0.23-0.46-0.49-0.64-0.78
					c-0.18-0.29-0.36-0.57-0.49-0.88c-0.13-0.34-0.23-0.65-0.28-0.99c-0.08-0.34-0.1-0.67-0.1-1.01c0.01-1.37,0.56-2.69,1.55-3.64
					c0.23-0.26,0.5-0.46,0.78-0.64c0.29-0.21,0.57-0.36,0.91-0.49c0.31-0.13,0.62-0.23,0.96-0.28c1.68-0.33,3.47,0.23,4.68,1.45
					c0.95,0.96,1.49,2.29,1.48,3.66c0,0.34-0.03,0.67-0.11,1.01c-0.05,0.34-0.16,0.65-0.29,0.98c-0.13,0.31-0.29,0.59-0.5,0.88
					c-0.18,0.28-0.39,0.54-0.63,0.77c-0.26,0.26-0.52,0.46-0.81,0.64c-0.29,0.21-0.57,0.36-0.88,0.49
					c-0.34,0.13-0.65,0.23-0.99,0.28C909.98,968.2,909.64,968.23,909.3,968.23z"/>
			</g>
		</g>
	</g>
</g>
</svg>
